<svg width="38" height="38" viewBox="0 0 38 38" fill="none" xmlns="http://www.w3.org/2000/svg">
<rect width="38" height="38" rx="6" fill="#3FC7CE" fill-opacity="0.12"/>
<path fill-rule="evenodd" clip-rule="evenodd" d="M19 10C14.0091 10 10 14.0091 10 19C10 23.9909 14.0091 28 19 28C23.9909 28 28 23.9909 28 19C28 14.0091 23.9909 10 19 10ZM26.282 18.1818H23.0093C22.8456 15.8909 22.1093 13.7636 20.8002 11.8818C23.7456 12.6182 25.9547 15.1545 26.282 18.1818ZM21.4546 19.8182H16.6274C16.791 22.0273 17.6092 24.1545 19.0819 25.8727C20.391 24.1545 21.2092 22.0273 21.4546 19.8182ZM16.6274 18.1818C16.8728 15.9727 17.691 13.8454 19.0001 12.1273C20.391 13.9273 21.2092 16.0545 21.3728 18.1818H16.6274ZM14.991 18.1818C15.1546 15.8909 15.891 13.7636 17.1183 11.8818C14.2546 12.6182 12.0455 15.1545 11.7183 18.1818H14.991ZM11.7183 19.8182H14.991C15.1546 22.1091 15.891 24.2364 17.2001 26.1182C14.2546 25.3818 12.0455 22.8455 11.7183 19.8182ZM23.0907 19.8182C22.8453 22.1091 22.1089 24.2364 20.8817 26.1182C23.7453 25.3818 25.9544 22.8455 26.3635 19.8182H23.0907Z" fill="black"/>
<mask id="mask0_166_1971" style="mask-type:alpha" maskUnits="userSpaceOnUse" x="10" y="10" width="18" height="18">
<path fill-rule="evenodd" clip-rule="evenodd" d="M19 10C14.0091 10 10 14.0091 10 19C10 23.9909 14.0091 28 19 28C23.9909 28 28 23.9909 28 19C28 14.0091 23.9909 10 19 10ZM26.282 18.1818H23.0093C22.8456 15.8909 22.1093 13.7636 20.8002 11.8818C23.7456 12.6182 25.9547 15.1545 26.282 18.1818ZM21.4546 19.8182H16.6274C16.791 22.0273 17.6092 24.1545 19.0819 25.8727C20.391 24.1545 21.2092 22.0273 21.4546 19.8182ZM16.6274 18.1818C16.8728 15.9727 17.691 13.8454 19.0001 12.1273C20.391 13.9273 21.2092 16.0545 21.3728 18.1818H16.6274ZM14.991 18.1818C15.1546 15.8909 15.891 13.7636 17.1183 11.8818C14.2546 12.6182 12.0455 15.1545 11.7183 18.1818H14.991ZM11.7183 19.8182H14.991C15.1546 22.1091 15.891 24.2364 17.2001 26.1182C14.2546 25.3818 12.0455 22.8455 11.7183 19.8182ZM23.0907 19.8182C22.8453 22.1091 22.1089 24.2364 20.8817 26.1182C23.7453 25.3818 25.9544 22.8455 26.3635 19.8182H23.0907Z" fill="white"/>
</mask>
<g mask="url(#mask0_166_1971)">
<rect x="9.18164" y="9.18164" width="19.6364" height="19.6364" fill="#3FC7CE"/>
</g>
</svg>
