<svg width="555" height="593" viewBox="0 0 555 593" fill="none" xmlns="http://www.w3.org/2000/svg">
<path d="M238.292 331.135L327.584 472.125" stroke="#333333" stroke-width="1.73508" stroke-miterlimit="10"/>
<path d="M307.084 338.82L234.223 472.412" stroke="#333333" stroke-width="1.73508" stroke-miterlimit="10"/>
<path d="M349.129 287.095C347.393 324.433 310.989 343.739 273.78 340.188C273.223 340.135 274.344 340.245 273.78 340.188C217.343 334.511 183.943 314.194 181.049 248.704C181.021 248.05 180.996 247.396 180.974 246.746C179.265 194.663 243.037 168.178 278.997 205.893L349.468 279.802L349.129 287.095Z" fill="#0AADB6"/>
<path d="M228.719 283.494L227.74 302.411L264.324 321.199L318.197 309.801L311.127 284.926L228.719 283.494Z" fill="#68234A"/>
<path d="M243.25 118.381C243.25 122.639 246.008 126.089 249.411 126.089C252.813 126.089 255.571 122.639 255.571 118.381C255.571 114.123 252.813 110.672 249.411 110.672C246.008 110.672 243.25 114.123 243.25 118.381Z" fill="#1F2028"/>
<path d="M275.871 147.512C275.865 147.512 275.856 147.512 275.846 147.512C262.452 147.683 251.159 137.246 250.836 123.856C250.531 111.203 252.606 98.1266 262.261 97.0237C278.931 95.1184 285.514 103.931 285.514 103.931L275.871 147.512Z" fill="#1F2028"/>
<path d="M292.651 115.951C290.715 107.056 282.93 100.456 273.826 100.471C271.062 100.475 268.222 101.087 265.561 102.71C259.246 106.56 257.865 116.717 257.777 124.363L259.25 133.794L261.975 173.019C270.041 196.795 289.108 194.175 286.495 164.28L284.436 144.74C295.729 140.383 294.825 125.938 292.651 115.951Z" fill="#F1B7B6"/>
<path d="M284.436 144.74C284.436 144.74 279.222 147.173 271.203 142.895C271.203 142.895 276.266 151.174 285.339 153.434L284.436 144.74Z" fill="#D07C79"/>
<path d="M259.08 121.598C259.317 123.546 258.312 125.271 256.837 125.45C255.362 125.63 253.975 124.195 253.738 122.247C253.501 120.3 254.506 118.576 255.98 118.396C257.456 118.217 258.844 119.651 259.08 121.598Z" fill="#BE9590"/>
<path d="M256.499 121.911C256.53 122.167 256.348 122.399 256.092 122.43C255.836 122.462 255.604 122.28 255.573 122.024C255.542 121.768 255.723 121.535 255.979 121.504C256.235 121.473 256.469 121.655 256.499 121.911Z" fill="#A47976"/>
<path d="M284.436 144.74C283.422 145.299 282.249 145.507 281.099 145.595C279.94 145.673 278.778 145.548 277.639 145.351C276.499 145.14 275.393 144.79 274.311 144.392C273.778 144.172 273.251 143.938 272.725 143.707C272.216 143.435 271.704 143.175 271.203 142.895C271.741 143.1 272.266 143.327 272.797 143.542C273.334 143.738 273.868 143.941 274.407 144.126C275.495 144.464 276.583 144.812 277.706 144.99C278.819 145.213 279.953 145.33 281.088 145.314C281.654 145.297 282.223 145.267 282.783 145.168C283.346 145.089 283.903 144.954 284.436 144.74Z" fill="#363849"/>
<path d="M259.08 121.598C259.317 123.546 258.312 125.271 256.837 125.45C255.362 125.63 253.975 124.195 253.738 122.247C253.501 120.3 254.506 118.576 255.98 118.396C257.456 118.217 258.844 119.651 259.08 121.598Z" fill="#F1B7B6"/>
<path d="M257.195 120.84C257.195 120.84 255.6 120.725 255.572 122.024C255.544 123.323 257.089 122.954 257.089 122.954" stroke="#B77A77" stroke-width="0.51186" stroke-miterlimit="10" stroke-linecap="round"/>
<path d="M275.871 128.471C276.689 129.529 277.691 130.445 278.833 131.096C279.975 131.741 281.291 132.076 282.586 131.919C283.885 131.788 285.106 131.217 286.203 130.488C287.308 129.755 288.283 128.832 289.221 127.874C288.405 128.939 287.473 129.93 286.377 130.735C285.285 131.537 284.006 132.139 282.626 132.309C281.246 132.445 279.834 132.084 278.679 131.355C277.524 130.623 276.559 129.625 275.871 128.471Z" fill="#333549"/>
<path d="M280.477 113.646C281.336 114.161 282.181 114.688 283.002 115.253C283.839 115.806 284.631 116.378 285.458 116.98C285.61 117.116 285.638 117.283 285.656 117.419C285.67 117.56 285.665 117.694 285.653 117.824C285.627 118.085 285.572 118.333 285.511 118.579C285.388 119.07 285.229 119.546 285.058 120.017C284.704 120.953 284.309 121.871 283.865 122.766C284.223 121.834 284.57 120.9 284.864 119.95C285.015 119.477 285.153 119.001 285.254 118.52C285.304 118.28 285.345 118.038 285.36 117.801C285.376 117.578 285.35 117.298 285.253 117.231C284.442 116.698 283.591 116.139 282.799 115.541C281.991 114.956 281.21 114.331 280.477 113.646Z" fill="#333549"/>
<path d="M275.411 116.11C275.814 117.116 276.115 118.161 276.226 119.251C276.277 119.794 276.288 120.353 276.165 120.906C276.049 121.452 275.753 122.018 275.234 122.338C274.714 122.668 274.053 122.647 273.525 122.468C272.981 122.292 272.51 121.99 272.071 121.665C271.195 121.004 270.456 120.206 269.804 119.339C269.762 119.284 269.774 119.205 269.829 119.163C269.882 119.124 269.956 119.133 269.998 119.183L270.003 119.187C270.686 119.992 271.44 120.757 272.279 121.385C272.702 121.689 273.154 121.964 273.636 122.111C274.115 122.264 274.625 122.255 275.031 122.006C275.443 121.763 275.699 121.315 275.816 120.825C275.937 120.331 275.94 119.803 275.9 119.281C275.803 118.236 275.549 117.192 275.213 116.189L275.211 116.184C275.193 116.128 275.224 116.068 275.279 116.049C275.332 116.032 275.39 116.059 275.411 116.11Z" fill="#333549"/>
<path d="M289.068 111.66C289.457 112.596 289.77 113.56 289.946 114.567C290.034 115.069 290.09 115.583 290.049 116.11C290.006 116.613 289.842 117.241 289.288 117.541C289.023 117.689 288.703 117.705 288.431 117.65C288.153 117.595 287.905 117.482 287.675 117.352C287.218 117.086 286.827 116.748 286.46 116.393C285.727 115.679 285.103 114.883 284.543 114.035C284.506 113.978 284.52 113.9 284.578 113.862C284.633 113.826 284.707 113.839 284.747 113.891L284.749 113.895C285.347 114.688 285.993 115.456 286.702 116.141C287.06 116.478 287.442 116.795 287.858 117.027C288.267 117.258 288.746 117.391 289.105 117.197C289.479 117.015 289.646 116.542 289.694 116.075C289.74 115.6 289.699 115.107 289.624 114.62C289.463 113.647 289.194 112.678 288.87 111.738L288.869 111.735C288.85 111.68 288.88 111.62 288.935 111.601C288.988 111.582 289.046 111.609 289.068 111.66Z" fill="#333549"/>
<path d="M290.62 107.426L268.13 115.065L263.447 109.256L266.611 115.686L258.045 119.263C258.045 119.263 252.731 103.475 257.195 99.0111C261.659 94.5475 278.27 92.5643 290.62 107.426Z" fill="#1F2028"/>
<path d="M287.617 162.413C287.617 162.413 285.498 165.06 277.675 164.531C269.852 164.001 259.939 161.313 259.939 161.313" stroke="#F47687" stroke-width="0.85272" stroke-miterlimit="10" stroke-linecap="round"/>
<path d="M308.204 163.082C300.923 159.988 287.618 162.412 287.618 162.412C280.926 167.801 259.94 161.314 259.94 161.314C252.146 161.109 239.021 158.242 233.74 164.6C210.854 192.156 216.495 274.282 222.119 278.611C228.622 283.618 238.256 285.555 247.145 284.438C256.036 283.321 259.702 283.272 287.886 287.068C308.589 289.857 319.157 284.223 322.318 281.678C329.854 275.611 319.595 167.922 308.204 163.082Z" fill="#6E4998"/>
<path d="M237.835 340.164L274.052 328.405L264.88 314.351L232.953 327.699" fill="#F1B7B6"/>
<path d="M236.586 325.652L243.259 338.625L227.886 344.514C224.495 345.813 220.874 346.507 217.247 346.327C209.731 345.952 203.901 343.643 203.837 340.581C203.791 338.354 206.789 337.016 210.458 336.091C219.325 333.855 227.918 330.652 235.838 326.083L236.586 325.652Z" fill="#E8CEC9"/>
<path d="M234.83 326.664L241.937 322.703L248.157 336.813L239.404 340.164L234.83 326.664Z" fill="#BACCD6"/>
<path d="M260.635 313.604C260.635 313.604 328.603 271.739 350.767 276.665C372.931 281.59 365.051 307.202 290.186 326.902L269.724 332.321L260.635 313.604Z" fill="#551A3E"/>
<path d="M264.978 310.172L296.42 324.626L291.106 336.913L255.321 323.897L264.978 310.172Z" fill="#F1B7B6"/>
<path d="M293.581 322.777L286.949 335.775L304.933 343.316C306.998 344.102 312.851 345.336 318.041 344.928C327.389 344.193 325.24 338.825 320.114 335.741C316.418 333.517 312.265 331.064 310.595 330.249L293.581 322.777Z" fill="#E8CEC9"/>
<path d="M295.917 323.795L286.877 319.985L280.909 333.204L289.54 336.859L295.917 323.795Z" fill="#BACCD6"/>
<path d="M269.249 309.574C269.249 309.574 202.783 265.362 180.46 269.512C158.139 273.661 165.12 299.531 239.252 321.833L259.512 327.962L269.249 309.574Z" fill="#68234A"/>
<path d="M555 472.557H0" stroke="#333333" stroke-width="1.14" stroke-miterlimit="10"/>
<path d="M313.534 269.133H459.299C460.884 269.133 462.17 267.848 462.17 266.262V170.709C462.17 169.124 460.884 167.838 459.299 167.838H313.534C311.949 167.838 310.663 169.124 310.663 170.709V266.262C310.663 267.848 311.949 269.133 313.534 269.133Z" fill="white"/>
<path d="M316.857 269.133H462.621C464.207 269.133 465.491 267.848 465.491 266.262V170.709C465.491 169.124 464.207 167.838 462.621 167.838H316.857C315.272 167.838 313.986 169.124 313.986 170.709V266.262C313.986 267.848 315.272 269.133 316.857 269.133Z" fill="#008A92"/>
<path d="M379.982 214.938L343.676 269.134H395.9L379.982 214.938Z" fill="#008A92"/>
<path d="M344.213 289.142H410.131C411.596 289.142 412.784 290.33 412.784 291.796C412.784 293.261 411.596 294.449 410.131 294.449H344.213C342.748 294.449 341.56 293.261 341.56 291.796C341.56 290.33 342.748 289.142 344.213 289.142Z" fill="#0AADB6"/>
<path d="M406.011 213.554H382.655C380.562 213.554 378.993 215.473 379.409 217.524L394.491 291.795C394.804 293.338 396.161 294.447 397.736 294.447H422.252C424.365 294.447 425.938 292.495 425.487 290.429L409.245 216.158C408.913 214.637 407.567 213.554 406.011 213.554Z" fill="#0AADB6"/>
<path d="M371.908 289.142H414.994V294.449H371.908C370.442 294.449 369.254 293.261 369.254 291.796C369.254 290.33 370.442 289.142 371.908 289.142Z" fill="#0AADB6"/>
<path d="M267.784 290.262H328.26C329.416 290.262 330.354 291.199 330.354 292.356C330.354 293.512 329.416 294.449 328.26 294.449H267.784C266.627 294.449 265.689 293.512 265.689 292.356C265.689 291.199 266.627 290.262 267.784 290.262Z" fill="#FBA09E"/>
<path d="M393.003 472.905L447.852 301.448L504.075 470.822" stroke="#333333" stroke-width="1.88328" stroke-miterlimit="10"/>
<path d="M69.603 472.905L124.453 301.448L180.675 470.822" stroke="#333333" stroke-width="1.88328" stroke-miterlimit="10"/>
<path d="M501.269 305.683H71.4507V294.448H501.269V305.683Z" fill="#6E4998"/>
<path d="M299.316 284.242C299.316 284.242 322.637 297.492 318.356 299.928C314.075 302.365 310.67 295.609 305.121 293.422C299.573 291.235 294.471 285.67 299.316 284.242Z" fill="#F1B7B6"/>
<path d="M294.688 289.617C288.41 289.444 274.562 284.67 274.562 284.67C274.562 284.67 235.081 270.734 234.182 258.802C233.754 253.124 235.639 241.122 237.731 230.095C237.598 230.081 237.465 230.069 237.333 230.055C229.936 229.266 222.075 228.946 214.22 228.297C210.144 244.501 206.447 261.723 207.002 269.087C208.182 284.767 257.773 294.839 257.773 294.839C264.625 296.49 298.855 294.441 298.855 294.441C298.855 294.441 300.966 289.792 294.688 289.617Z" fill="#F1B7B6"/>
<path d="M233.365 165.648C233.365 165.648 224.219 168.551 219.823 189.708C216.395 206.209 201.788 247.292 221.237 261.499C225.564 264.658 238.48 257.761 258.208 255.947C281.523 253.803 233.365 165.648 233.365 165.648Z" fill="#6E4998"/>
<path d="M506.066 56.7527C506.066 72.6384 493.187 85.5171 477.301 85.5171C461.416 85.5171 448.537 72.6384 448.537 56.7527C448.537 40.8664 461.416 27.9883 477.301 27.9883C493.187 27.9883 506.066 40.8664 506.066 56.7527Z" fill="#6E4998"/>
<path d="M478.773 56.7526C478.773 57.7432 477.97 58.5463 476.979 58.5463C475.989 58.5463 475.186 57.7432 475.186 56.7526C475.186 55.762 475.989 54.959 476.979 54.959C477.97 54.959 478.773 55.762 478.773 56.7526Z" fill="#6E4998"/>
<path d="M476.979 57.496C476.892 57.496 476.805 57.4792 476.721 57.4487C476.336 57.3058 476.141 56.8787 476.284 56.495L480.365 45.5164C480.508 45.1295 480.935 44.9393 481.318 45.0789C481.703 45.221 481.898 45.6495 481.755 46.0325L477.673 57.0105C477.562 57.3091 477.279 57.496 476.979 57.496Z" fill="#FAFBFF"/>
<path d="M460.765 58.5622C460.876 58.4037 461.05 58.2898 461.256 58.2563L477.239 55.697C477.644 55.6327 478.023 55.9075 478.088 56.3113C478.15 56.7148 477.877 57.093 477.473 57.1607L461.491 59.7195C461.086 59.7841 460.707 59.5089 460.642 59.1052C460.61 58.9071 460.658 58.7149 460.765 58.5622Z" fill="#FAFBFF"/>
<path d="M397.329 133.898H428.782C432.981 133.898 436.384 130.494 436.384 126.296C436.384 122.097 432.981 118.693 428.782 118.693H397.329C393.131 118.693 389.726 122.097 389.726 126.296C389.726 130.494 393.131 133.898 397.329 133.898Z" fill="#B09DC9"/>
<path d="M401.876 126.161C401.871 127.709 403.122 128.968 404.671 128.973C406.219 128.978 407.478 127.726 407.484 126.178C407.488 124.629 406.236 123.371 404.688 123.365C403.139 123.361 401.88 124.612 401.876 126.161Z" fill="#FAFBFF"/>
<path d="M410.672 126.161C410.667 127.709 411.918 128.968 413.468 128.973C415.016 128.978 416.275 127.726 416.28 126.178C416.284 124.629 415.033 123.371 413.485 123.365C411.936 123.361 410.677 124.612 410.672 126.161Z" fill="#FAFBFF"/>
<path d="M418.699 126.161C418.694 127.709 419.945 128.968 421.495 128.973C423.043 128.978 424.301 127.726 424.307 126.178C424.311 124.629 423.059 123.371 421.511 123.365C419.963 123.361 418.704 124.612 418.699 126.161Z" fill="#FAFBFF"/>
<path fill-rule="evenodd" clip-rule="evenodd" d="M192.977 68.8382H125.542C124.375 68.8382 123.429 67.8924 123.429 66.7258V31.7189C123.429 30.5522 124.375 29.6064 125.542 29.6064H220.807C221.973 29.6064 222.919 30.5522 222.919 31.7189V66.7258C222.919 67.8924 221.973 68.8382 220.807 68.8382H208.94V81.3608L192.977 68.8382Z" fill="#6E4998" fill-opacity="0.5"/>
<path d="M132.167 212.814C120.244 227.706 113.812 248.067 107.934 265.829" stroke="#296C71" stroke-width="1.2027" stroke-miterlimit="10"/>
<path d="M176.915 254.906C176.915 254.906 175.997 236.755 155.034 216.341C134.072 195.926 131.255 214.707 131.255 214.707C131.255 214.707 120.785 218.283 139.169 248.851L143.3 236.515L145.771 252.482L157.581 258.849L158.66 249.853L163.499 259.771C163.499 259.771 176.152 257.747 176.915 254.906Z" fill="#25523B"/>
<path d="M176.915 254.906C176.915 254.906 147.948 205.756 131.255 214.707" stroke="#1A936F" stroke-width="1.2027" stroke-miterlimit="10" stroke-linecap="round"/>
<path d="M88.5308 190.625C99.2288 216.155 97.8064 235.298 101.313 269.405" stroke="#296C71" stroke-width="1.2027" stroke-miterlimit="10"/>
<path d="M28.1565 167.965C28.1565 167.965 44.2348 157.895 73.1983 167.971C102.162 178.047 87.5799 192.515 87.5799 192.515C87.5799 192.515 90.2259 205.937 53.9557 204.816L62.2882 192.864L47.2352 199.938L35.3243 191.132L42.457 184.493L31.3039 185.338C31.3039 185.338 26.1349 170.515 28.1565 167.965Z" fill="#25523B"/>
<path d="M28.1567 167.964C28.1567 167.964 86.1513 169.131 87.5808 192.513" stroke="#1A936F" stroke-width="1.2027" stroke-miterlimit="10" stroke-linecap="round"/>
<path d="M87.0562 249.831H121.518L112.036 294.448H94.3962L87.0562 249.831Z" fill="#B09DC9"/>
<path d="M130.047 38.9072H214.748" stroke="#F3F2FA" stroke-width="3.64271"/>
<path d="M130.047 45.4004C130.047 45.4004 160.632 45.4004 185.044 45.4004" stroke="#F3F2FA" stroke-width="3.64271"/>
<path d="M130.047 55.1396C130.047 55.1396 137.722 55.1396 148.452 55.1396" stroke="#F3F2FA" stroke-width="3.64271"/>
<path fill-rule="evenodd" clip-rule="evenodd" d="M356.279 73.2922C376.519 73.2922 392.925 56.8852 392.925 36.6461C392.925 16.407 376.519 0 356.279 0C336.039 0 319.633 16.407 319.633 36.6461C319.633 51.0928 327.992 63.5871 340.138 69.5554V85.7897L356.069 73.2916C356.139 73.292 356.209 73.2922 356.279 73.2922Z" fill="#6E4998" fill-opacity="0.5"/>
<path d="M376.535 51.8515H335.521V26.168H376.535V51.8515Z" fill="#FAFBFF"/>
<path d="M335.521 26.168L355.43 39.1486L376.535 26.168" stroke="#B09DC9" stroke-width="1.10238" stroke-linecap="round" stroke-linejoin="round"/>
<path d="M144.653 542.252C143.365 542.252 142.124 542.103 140.929 541.804C139.753 541.505 138.727 541.057 137.849 540.46C137.495 540.217 137.28 539.928 137.205 539.592C137.131 539.237 137.159 538.92 137.289 538.64C137.439 538.341 137.653 538.136 137.933 538.024C138.232 537.912 138.568 537.977 138.941 538.22C139.781 538.761 140.668 539.163 141.601 539.424C142.535 539.667 143.552 539.788 144.653 539.788C146.24 539.788 147.407 539.508 148.153 538.948C148.919 538.369 149.301 537.623 149.301 536.708C149.301 535.961 149.031 535.373 148.489 534.944C147.948 534.496 147.043 534.141 145.773 533.88L142.777 533.264C141.004 532.891 139.679 532.275 138.801 531.416C137.943 530.557 137.513 529.4 137.513 527.944C137.513 526.768 137.821 525.732 138.437 524.836C139.072 523.94 139.949 523.249 141.069 522.764C142.189 522.26 143.477 522.008 144.933 522.008C146.091 522.008 147.173 522.157 148.181 522.456C149.208 522.755 150.123 523.212 150.925 523.828C151.243 524.052 151.429 524.323 151.485 524.64C151.541 524.957 151.495 525.256 151.345 525.536C151.196 525.797 150.972 525.975 150.673 526.068C150.375 526.161 150.029 526.087 149.637 525.844C148.909 525.359 148.163 525.013 147.397 524.808C146.632 524.584 145.801 524.472 144.905 524.472C143.524 524.472 142.423 524.78 141.601 525.396C140.799 526.012 140.397 526.833 140.397 527.86C140.397 528.644 140.649 529.269 141.153 529.736C141.657 530.203 142.497 530.557 143.673 530.8L146.641 531.416C148.508 531.808 149.899 532.415 150.813 533.236C151.728 534.039 152.185 535.131 152.185 536.512C152.185 537.669 151.877 538.677 151.261 539.536C150.645 540.395 149.777 541.067 148.657 541.552C147.537 542.019 146.203 542.252 144.653 542.252ZM160.925 542.252C159.208 542.252 157.929 541.813 157.089 540.936C156.249 540.059 155.829 538.789 155.829 537.128V530.52H154.149C153.365 530.52 152.973 530.156 152.973 529.428C152.973 528.7 153.365 528.336 154.149 528.336H155.829V525.452C155.829 524.5 156.305 524.024 157.257 524.024C158.191 524.024 158.657 524.5 158.657 525.452V528.336H161.933C162.717 528.336 163.109 528.7 163.109 529.428C163.109 530.156 162.717 530.52 161.933 530.52H158.657V536.904C158.657 537.893 158.863 538.64 159.273 539.144C159.703 539.648 160.393 539.9 161.345 539.9C161.681 539.9 161.971 539.872 162.213 539.816C162.456 539.741 162.671 539.695 162.857 539.676C163.063 539.676 163.231 539.751 163.361 539.9C163.492 540.031 163.557 540.292 163.557 540.684C163.557 540.983 163.501 541.253 163.389 541.496C163.296 541.72 163.119 541.869 162.857 541.944C162.633 542.037 162.325 542.112 161.933 542.168C161.56 542.224 161.224 542.252 160.925 542.252ZM171.127 542.252C169.746 542.252 168.551 541.963 167.543 541.384C166.535 540.805 165.751 539.993 165.191 538.948C164.65 537.884 164.379 536.624 164.379 535.168C164.379 533.712 164.65 532.461 165.191 531.416C165.751 530.352 166.535 529.531 167.543 528.952C168.551 528.373 169.746 528.084 171.127 528.084C172.471 528.084 173.647 528.373 174.655 528.952C175.663 529.531 176.447 530.352 177.007 531.416C177.567 532.461 177.847 533.712 177.847 535.168C177.847 536.624 177.567 537.884 177.007 538.948C176.447 539.993 175.663 540.805 174.655 541.384C173.647 541.963 172.471 542.252 171.127 542.252ZM171.127 540.068C172.284 540.068 173.218 539.648 173.927 538.808C174.636 537.968 174.991 536.755 174.991 535.168C174.991 533.581 174.636 532.377 173.927 531.556C173.218 530.716 172.284 530.296 171.127 530.296C169.951 530.296 169.008 530.716 168.299 531.556C167.59 532.377 167.235 533.581 167.235 535.168C167.235 536.755 167.59 537.968 168.299 538.808C169.008 539.648 169.951 540.068 171.127 540.068ZM182.423 547.236C181.49 547.236 181.023 546.76 181.023 545.808V529.568C181.023 528.616 181.48 528.14 182.395 528.14C183.328 528.14 183.795 528.616 183.795 529.568V530.632C184.206 529.848 184.812 529.232 185.615 528.784C186.418 528.317 187.332 528.084 188.359 528.084C189.572 528.084 190.627 528.373 191.523 528.952C192.438 529.531 193.138 530.352 193.623 531.416C194.127 532.461 194.379 533.712 194.379 535.168C194.379 536.624 194.127 537.884 193.623 538.948C193.138 540.012 192.438 540.833 191.523 541.412C190.627 541.972 189.572 542.252 188.359 542.252C187.351 542.252 186.446 542.037 185.643 541.608C184.859 541.16 184.262 540.553 183.851 539.788V545.808C183.851 546.76 183.375 547.236 182.423 547.236ZM187.659 540.068C188.835 540.068 189.768 539.648 190.459 538.808C191.168 537.968 191.523 536.755 191.523 535.168C191.523 533.581 191.168 532.377 190.459 531.556C189.768 530.716 188.835 530.296 187.659 530.296C186.483 530.296 185.54 530.716 184.831 531.556C184.14 532.377 183.795 533.581 183.795 535.168C183.795 536.755 184.14 537.968 184.831 538.808C185.54 539.648 186.483 540.068 187.659 540.068ZM206.405 542.196C205.472 542.196 205.005 541.72 205.005 540.768V529.568C205.005 528.616 205.462 528.14 206.377 528.14C207.292 528.14 207.749 528.616 207.749 529.568V530.548C208.16 529.764 208.729 529.157 209.457 528.728C210.185 528.299 211.034 528.084 212.005 528.084C214.096 528.084 215.449 528.999 216.065 530.828C216.494 529.969 217.11 529.297 217.913 528.812C218.716 528.327 219.63 528.084 220.657 528.084C223.718 528.084 225.249 529.913 225.249 533.572V540.768C225.249 541.72 224.773 542.196 223.821 542.196C222.888 542.196 222.421 541.72 222.421 540.768V533.712C222.421 532.555 222.216 531.705 221.805 531.164C221.413 530.623 220.76 530.352 219.845 530.352C218.818 530.352 218.006 530.716 217.409 531.444C216.812 532.153 216.513 533.124 216.513 534.356V540.768C216.513 541.72 216.046 542.196 215.113 542.196C214.161 542.196 213.685 541.72 213.685 540.768V533.712C213.685 532.555 213.489 531.705 213.097 531.164C212.705 530.623 212.052 530.352 211.137 530.352C210.11 530.352 209.298 530.716 208.701 531.444C208.122 532.153 207.833 533.124 207.833 534.356V540.768C207.833 541.72 207.357 542.196 206.405 542.196ZM233.571 542.252C232.619 542.252 231.77 542.065 231.023 541.692C230.276 541.319 229.679 540.815 229.231 540.18C228.802 539.545 228.587 538.827 228.587 538.024C228.587 537.016 228.839 536.223 229.343 535.644C229.866 535.065 230.715 534.645 231.891 534.384C233.086 534.123 234.691 533.992 236.707 533.992H237.659V533.264C237.659 532.2 237.435 531.435 236.987 530.968C236.539 530.501 235.802 530.268 234.775 530.268C234.178 530.268 233.552 530.343 232.899 530.492C232.264 530.641 231.602 530.893 230.911 531.248C230.519 531.435 230.192 531.463 229.931 531.332C229.688 531.201 229.52 530.996 229.427 530.716C229.334 530.436 229.343 530.147 229.455 529.848C229.567 529.549 229.8 529.325 230.155 529.176C230.976 528.803 231.788 528.532 232.591 528.364C233.394 528.177 234.15 528.084 234.859 528.084C236.726 528.084 238.107 528.532 239.003 529.428C239.899 530.305 240.347 531.687 240.347 533.572V540.768C240.347 541.72 239.908 542.196 239.031 542.196C238.135 542.196 237.687 541.72 237.687 540.768V539.732C237.351 540.516 236.828 541.132 236.119 541.58C235.41 542.028 234.56 542.252 233.571 542.252ZM234.131 540.236C235.139 540.236 235.979 539.881 236.651 539.172C237.323 538.463 237.659 537.567 237.659 536.484V535.728H236.735C235.372 535.728 234.299 535.793 233.515 535.924C232.75 536.055 232.199 536.279 231.863 536.596C231.546 536.895 231.387 537.315 231.387 537.856C231.387 538.565 231.63 539.144 232.115 539.592C232.6 540.021 233.272 540.236 234.131 540.236ZM245.642 542.196C244.709 542.196 244.242 541.72 244.242 540.768V529.568C244.242 528.616 244.699 528.14 245.614 528.14C246.529 528.14 246.986 528.616 246.986 529.568V530.604C247.453 529.783 248.087 529.157 248.89 528.728C249.711 528.299 250.626 528.084 251.634 528.084C254.863 528.084 256.478 529.913 256.478 533.572V540.768C256.478 541.72 256.011 542.196 255.078 542.196C254.126 542.196 253.65 541.72 253.65 540.768V533.74C253.65 532.564 253.417 531.705 252.95 531.164C252.502 530.623 251.793 530.352 250.822 530.352C249.683 530.352 248.769 530.716 248.078 531.444C247.406 532.153 247.07 533.096 247.07 534.272V540.768C247.07 541.72 246.594 542.196 245.642 542.196ZM264.743 542.252C263.791 542.252 262.941 542.065 262.195 541.692C261.448 541.319 260.851 540.815 260.403 540.18C259.973 539.545 259.759 538.827 259.759 538.024C259.759 537.016 260.011 536.223 260.515 535.644C261.037 535.065 261.887 534.645 263.063 534.384C264.257 534.123 265.863 533.992 267.879 533.992H268.831V533.264C268.831 532.2 268.607 531.435 268.159 530.968C267.711 530.501 266.973 530.268 265.947 530.268C265.349 530.268 264.724 530.343 264.071 530.492C263.436 530.641 262.773 530.893 262.083 531.248C261.691 531.435 261.364 531.463 261.103 531.332C260.86 531.201 260.692 530.996 260.599 530.716C260.505 530.436 260.515 530.147 260.627 529.848C260.739 529.549 260.972 529.325 261.327 529.176C262.148 528.803 262.96 528.532 263.763 528.364C264.565 528.177 265.321 528.084 266.031 528.084C267.897 528.084 269.279 528.532 270.175 529.428C271.071 530.305 271.519 531.687 271.519 533.572V540.768C271.519 541.72 271.08 542.196 270.203 542.196C269.307 542.196 268.859 541.72 268.859 540.768V539.732C268.523 540.516 268 541.132 267.291 541.58C266.581 542.028 265.732 542.252 264.743 542.252ZM265.303 540.236C266.311 540.236 267.151 539.881 267.823 539.172C268.495 538.463 268.831 537.567 268.831 536.484V535.728H267.907C266.544 535.728 265.471 535.793 264.687 535.924C263.921 536.055 263.371 536.279 263.035 536.596C262.717 536.895 262.559 537.315 262.559 537.856C262.559 538.565 262.801 539.144 263.287 539.592C263.772 540.021 264.444 540.236 265.303 540.236ZM281.602 547.292C280.594 547.292 279.614 547.189 278.662 546.984C277.728 546.779 276.879 546.443 276.114 545.976C275.778 545.789 275.572 545.556 275.498 545.276C275.423 544.996 275.451 544.725 275.582 544.464C275.731 544.203 275.927 544.007 276.17 543.876C276.431 543.764 276.711 543.792 277.01 543.96C277.831 544.408 278.606 544.707 279.334 544.856C280.08 545.024 280.771 545.108 281.406 545.108C284.019 545.108 285.326 543.801 285.326 541.188V539.032C284.934 539.853 284.318 540.497 283.478 540.964C282.656 541.431 281.732 541.664 280.706 541.664C279.474 541.664 278.4 541.384 277.486 540.824C276.571 540.245 275.862 539.452 275.358 538.444C274.854 537.417 274.602 536.223 274.602 534.86C274.602 533.516 274.854 532.34 275.358 531.332C275.862 530.305 276.571 529.512 277.486 528.952C278.4 528.373 279.474 528.084 280.706 528.084C281.732 528.084 282.647 528.317 283.45 528.784C284.271 529.232 284.878 529.848 285.27 530.632V529.568C285.27 528.616 285.736 528.14 286.67 528.14C287.603 528.14 288.07 528.616 288.07 529.568V540.852C288.07 542.999 287.519 544.604 286.418 545.668C285.316 546.751 283.711 547.292 281.602 547.292ZM281.378 539.452C282.572 539.452 283.524 539.041 284.234 538.22C284.943 537.399 285.298 536.279 285.298 534.86C285.298 533.441 284.943 532.331 284.234 531.528C283.524 530.707 282.572 530.296 281.378 530.296C280.183 530.296 279.231 530.707 278.522 531.528C277.812 532.331 277.458 533.441 277.458 534.86C277.458 536.279 277.812 537.399 278.522 538.22C279.231 539.041 280.183 539.452 281.378 539.452ZM293.439 525.284C292.879 525.284 292.44 525.144 292.123 524.864C291.824 524.584 291.675 524.192 291.675 523.688C291.675 522.624 292.263 522.092 293.439 522.092C294.615 522.092 295.203 522.624 295.203 523.688C295.203 524.752 294.615 525.284 293.439 525.284ZM293.439 542.168C292.505 542.168 292.039 541.655 292.039 540.628V529.708C292.039 528.7 292.505 528.196 293.439 528.196C294.391 528.196 294.867 528.7 294.867 529.708V540.628C294.867 541.655 294.391 542.168 293.439 542.168ZM300.247 542.196C299.314 542.196 298.847 541.72 298.847 540.768V529.568C298.847 528.616 299.305 528.14 300.219 528.14C301.134 528.14 301.591 528.616 301.591 529.568V530.604C302.058 529.783 302.693 529.157 303.495 528.728C304.317 528.299 305.231 528.084 306.239 528.084C309.469 528.084 311.083 529.913 311.083 533.572V540.768C311.083 541.72 310.617 542.196 309.683 542.196C308.731 542.196 308.255 541.72 308.255 540.768V533.74C308.255 532.564 308.022 531.705 307.555 531.164C307.107 530.623 306.398 530.352 305.427 530.352C304.289 530.352 303.374 530.716 302.683 531.444C302.011 532.153 301.675 533.096 301.675 534.272V540.768C301.675 541.72 301.199 542.196 300.247 542.196ZM321.168 547.292C320.16 547.292 319.18 547.189 318.228 546.984C317.295 546.779 316.446 546.443 315.68 545.976C315.344 545.789 315.139 545.556 315.064 545.276C314.99 544.996 315.018 544.725 315.148 544.464C315.298 544.203 315.494 544.007 315.736 543.876C315.998 543.764 316.278 543.792 316.576 543.96C317.398 544.408 318.172 544.707 318.9 544.856C319.647 545.024 320.338 545.108 320.972 545.108C323.586 545.108 324.892 543.801 324.892 541.188V539.032C324.5 539.853 323.884 540.497 323.044 540.964C322.223 541.431 321.299 541.664 320.272 541.664C319.04 541.664 317.967 541.384 317.052 540.824C316.138 540.245 315.428 539.452 314.924 538.444C314.42 537.417 314.168 536.223 314.168 534.86C314.168 533.516 314.42 532.34 314.924 531.332C315.428 530.305 316.138 529.512 317.052 528.952C317.967 528.373 319.04 528.084 320.272 528.084C321.299 528.084 322.214 528.317 323.016 528.784C323.838 529.232 324.444 529.848 324.836 530.632V529.568C324.836 528.616 325.303 528.14 326.236 528.14C327.17 528.14 327.636 528.616 327.636 529.568V540.852C327.636 542.999 327.086 544.604 325.984 545.668C324.883 546.751 323.278 547.292 321.168 547.292ZM320.944 539.452C322.139 539.452 323.091 539.041 323.8 538.22C324.51 537.399 324.864 536.279 324.864 534.86C324.864 533.441 324.51 532.331 323.8 531.528C323.091 530.707 322.139 530.296 320.944 530.296C319.75 530.296 318.798 530.707 318.088 531.528C317.379 532.331 317.024 533.441 317.024 534.86C317.024 536.279 317.379 537.399 318.088 538.22C318.798 539.041 319.75 539.452 320.944 539.452ZM345.591 542.308C341.727 542.308 339.795 540.432 339.795 536.68V531.416H338.619C337.517 531.416 336.967 530.893 336.967 529.848C336.967 528.784 337.517 528.252 338.619 528.252H339.795V526.124C339.795 524.687 340.504 523.968 341.923 523.968C343.323 523.968 344.023 524.687 344.023 526.124V528.252H346.683C347.765 528.252 348.307 528.784 348.307 529.848C348.307 530.893 347.765 531.416 346.683 531.416H344.023V536.512C344.023 537.296 344.2 537.884 344.555 538.276C344.928 538.668 345.516 538.864 346.319 538.864C346.599 538.864 346.86 538.836 347.103 538.78C347.345 538.724 347.569 538.687 347.775 538.668C348.036 538.649 348.251 538.733 348.419 538.92C348.587 539.107 348.671 539.489 348.671 540.068C348.671 540.535 348.596 540.936 348.447 541.272C348.297 541.589 348.036 541.823 347.663 541.972C347.42 542.065 347.084 542.14 346.655 542.196C346.244 542.271 345.889 542.308 345.591 542.308ZM356.634 542.308C355.16 542.308 353.872 542.019 352.77 541.44C351.688 540.843 350.848 540.012 350.25 538.948C349.653 537.865 349.354 536.587 349.354 535.112C349.354 533.656 349.653 532.396 350.25 531.332C350.848 530.249 351.688 529.419 352.77 528.84C353.872 528.261 355.16 527.972 356.634 527.972C358.109 527.972 359.388 528.261 360.47 528.84C361.572 529.419 362.421 530.249 363.018 531.332C363.634 532.396 363.942 533.656 363.942 535.112C363.942 536.587 363.634 537.865 363.018 538.948C362.421 540.012 361.572 540.843 360.47 541.44C359.388 542.019 358.109 542.308 356.634 542.308ZM356.634 539.144C357.53 539.144 358.258 538.817 358.818 538.164C359.397 537.511 359.686 536.493 359.686 535.112C359.686 533.749 359.397 532.751 358.818 532.116C358.258 531.463 357.53 531.136 356.634 531.136C355.738 531.136 355.01 531.463 354.45 532.116C353.89 532.751 353.61 533.749 353.61 535.112C353.61 536.493 353.89 537.511 354.45 538.164C355.01 538.817 355.738 539.144 356.634 539.144ZM373.123 542.308C371.648 542.308 370.36 542.019 369.259 541.44C368.176 540.843 367.336 540.012 366.739 538.948C366.141 537.865 365.843 536.587 365.843 535.112C365.843 533.656 366.141 532.396 366.739 531.332C367.336 530.249 368.176 529.419 369.259 528.84C370.36 528.261 371.648 527.972 373.123 527.972C374.597 527.972 375.876 528.261 376.959 528.84C378.06 529.419 378.909 530.249 379.507 531.332C380.123 532.396 380.431 533.656 380.431 535.112C380.431 536.587 380.123 537.865 379.507 538.948C378.909 540.012 378.06 540.843 376.959 541.44C375.876 542.019 374.597 542.308 373.123 542.308ZM373.123 539.144C374.019 539.144 374.747 538.817 375.307 538.164C375.885 537.511 376.175 536.493 376.175 535.112C376.175 533.749 375.885 532.751 375.307 532.116C374.747 531.463 374.019 531.136 373.123 531.136C372.227 531.136 371.499 531.463 370.939 532.116C370.379 532.751 370.099 533.749 370.099 535.112C370.099 536.493 370.379 537.511 370.939 538.164C371.499 538.817 372.227 539.144 373.123 539.144ZM387.959 542.308C384.655 542.308 383.003 540.469 383.003 536.792V524.164C383.003 522.727 383.712 522.008 385.131 522.008C386.531 522.008 387.231 522.727 387.231 524.164V536.624C387.231 537.389 387.39 537.959 387.707 538.332C388.043 538.687 388.482 538.864 389.023 538.864C389.172 538.864 389.312 538.855 389.443 538.836C389.592 538.817 389.732 538.808 389.863 538.808C390.162 538.789 390.367 538.883 390.479 539.088C390.61 539.293 390.675 539.713 390.675 540.348C390.675 541.431 390.218 542.047 389.303 542.196C389.116 542.215 388.902 542.233 388.659 542.252C388.416 542.289 388.183 542.308 387.959 542.308ZM397.454 542.308C396.633 542.308 395.784 542.233 394.906 542.084C394.048 541.935 393.264 541.683 392.554 541.328C392.088 541.085 391.78 540.777 391.63 540.404C391.5 540.031 391.5 539.667 391.63 539.312C391.761 538.957 391.994 538.696 392.33 538.528C392.666 538.341 393.058 538.341 393.506 538.528C394.272 538.845 394.972 539.069 395.606 539.2C396.26 539.331 396.885 539.396 397.482 539.396C398.266 539.396 398.845 539.275 399.218 539.032C399.592 538.771 399.778 538.435 399.778 538.024C399.778 537.371 399.302 536.96 398.35 536.792L395.41 536.26C394.234 536.055 393.338 535.635 392.722 535C392.106 534.365 391.798 533.535 391.798 532.508C391.798 531.575 392.06 530.772 392.582 530.1C393.105 529.428 393.824 528.905 394.738 528.532C395.653 528.159 396.708 527.972 397.902 527.972C399.545 527.972 401.001 528.289 402.27 528.924C402.7 529.129 402.961 529.419 403.054 529.792C403.166 530.165 403.148 530.529 402.998 530.884C402.849 531.239 402.606 531.509 402.27 531.696C401.934 531.864 401.533 531.845 401.066 531.64C400.45 531.36 399.89 531.164 399.386 531.052C398.882 530.921 398.406 530.856 397.958 530.856C397.118 530.856 396.512 530.996 396.138 531.276C395.765 531.537 395.578 531.873 395.578 532.284C395.578 532.937 396.017 533.348 396.894 533.516L399.834 534.048C401.048 534.253 401.972 534.664 402.606 535.28C403.241 535.877 403.558 536.699 403.558 537.744C403.558 539.181 402.998 540.301 401.878 541.104C400.758 541.907 399.284 542.308 397.454 542.308ZM408.576 545.192C408.296 545.528 407.997 545.715 407.68 545.752C407.362 545.808 407.092 545.752 406.868 545.584C406.644 545.416 406.513 545.173 406.476 544.856C406.457 544.557 406.597 544.231 406.896 543.876C407.138 543.577 407.325 543.279 407.456 542.98C407.605 542.7 407.717 542.42 407.792 542.14C407.12 542.084 406.578 541.841 406.168 541.412C405.776 540.983 405.58 540.423 405.58 539.732C405.58 539.041 405.794 538.481 406.224 538.052C406.653 537.604 407.241 537.38 407.988 537.38C408.734 537.38 409.322 537.641 409.752 538.164C410.2 538.668 410.424 539.387 410.424 540.32C410.424 541.048 410.302 541.804 410.06 542.588C409.836 543.372 409.341 544.24 408.576 545.192ZM110.966 582.252C109.678 582.252 108.437 582.103 107.242 581.804C106.066 581.505 105.039 581.057 104.162 580.46C103.807 580.217 103.593 579.928 103.518 579.592C103.443 579.237 103.471 578.92 103.602 578.64C103.751 578.341 103.966 578.136 104.246 578.024C104.545 577.912 104.881 577.977 105.254 578.22C106.094 578.761 106.981 579.163 107.914 579.424C108.847 579.667 109.865 579.788 110.966 579.788C112.553 579.788 113.719 579.508 114.466 578.948C115.231 578.369 115.614 577.623 115.614 576.708C115.614 575.961 115.343 575.373 114.802 574.944C114.261 574.496 113.355 574.141 112.086 573.88L109.09 573.264C107.317 572.891 105.991 572.275 105.114 571.416C104.255 570.557 103.826 569.4 103.826 567.944C103.826 566.768 104.134 565.732 104.75 564.836C105.385 563.94 106.262 563.249 107.382 562.764C108.502 562.26 109.79 562.008 111.246 562.008C112.403 562.008 113.486 562.157 114.494 562.456C115.521 562.755 116.435 563.212 117.238 563.828C117.555 564.052 117.742 564.323 117.798 564.64C117.854 564.957 117.807 565.256 117.658 565.536C117.509 565.797 117.285 565.975 116.986 566.068C116.687 566.161 116.342 566.087 115.95 565.844C115.222 565.359 114.475 565.013 113.71 564.808C112.945 564.584 112.114 564.472 111.218 564.472C109.837 564.472 108.735 564.78 107.914 565.396C107.111 566.012 106.71 566.833 106.71 567.86C106.71 568.644 106.962 569.269 107.466 569.736C107.97 570.203 108.81 570.557 109.986 570.8L112.954 571.416C114.821 571.808 116.211 572.415 117.126 573.236C118.041 574.039 118.498 575.131 118.498 576.512C118.498 577.669 118.19 578.677 117.574 579.536C116.958 580.395 116.09 581.067 114.97 581.552C113.85 582.019 112.515 582.252 110.966 582.252ZM127.238 582.252C125.52 582.252 124.242 581.813 123.402 580.936C122.562 580.059 122.142 578.789 122.142 577.128V570.52H120.462C119.678 570.52 119.286 570.156 119.286 569.428C119.286 568.7 119.678 568.336 120.462 568.336H122.142V565.452C122.142 564.5 122.618 564.024 123.57 564.024C124.503 564.024 124.97 564.5 124.97 565.452V568.336H128.246C129.03 568.336 129.422 568.7 129.422 569.428C129.422 570.156 129.03 570.52 128.246 570.52H124.97V576.904C124.97 577.893 125.175 578.64 125.586 579.144C126.015 579.648 126.706 579.9 127.658 579.9C127.994 579.9 128.283 579.872 128.526 579.816C128.768 579.741 128.983 579.695 129.17 579.676C129.375 579.676 129.543 579.751 129.674 579.9C129.804 580.031 129.87 580.292 129.87 580.684C129.87 580.983 129.814 581.253 129.702 581.496C129.608 581.72 129.431 581.869 129.17 581.944C128.946 582.037 128.638 582.112 128.246 582.168C127.872 582.224 127.536 582.252 127.238 582.252ZM136.008 582.252C135.056 582.252 134.207 582.065 133.46 581.692C132.714 581.319 132.116 580.815 131.668 580.18C131.239 579.545 131.024 578.827 131.024 578.024C131.024 577.016 131.276 576.223 131.78 575.644C132.303 575.065 133.152 574.645 134.328 574.384C135.523 574.123 137.128 573.992 139.144 573.992H140.096V573.264C140.096 572.2 139.872 571.435 139.424 570.968C138.976 570.501 138.239 570.268 137.212 570.268C136.615 570.268 135.99 570.343 135.336 570.492C134.702 570.641 134.039 570.893 133.348 571.248C132.956 571.435 132.63 571.463 132.368 571.332C132.126 571.201 131.958 570.996 131.864 570.716C131.771 570.436 131.78 570.147 131.892 569.848C132.004 569.549 132.238 569.325 132.592 569.176C133.414 568.803 134.226 568.532 135.028 568.364C135.831 568.177 136.587 568.084 137.296 568.084C139.163 568.084 140.544 568.532 141.44 569.428C142.336 570.305 142.784 571.687 142.784 573.572V580.768C142.784 581.72 142.346 582.196 141.468 582.196C140.572 582.196 140.124 581.72 140.124 580.768V579.732C139.788 580.516 139.266 581.132 138.556 581.58C137.847 582.028 136.998 582.252 136.008 582.252ZM136.568 580.236C137.576 580.236 138.416 579.881 139.088 579.172C139.76 578.463 140.096 577.567 140.096 576.484V575.728H139.172C137.81 575.728 136.736 575.793 135.952 575.924C135.187 576.055 134.636 576.279 134.3 576.596C133.983 576.895 133.824 577.315 133.824 577.856C133.824 578.565 134.067 579.144 134.552 579.592C135.038 580.021 135.71 580.236 136.568 580.236ZM148.107 582.196C147.155 582.196 146.679 581.72 146.679 580.768V569.568C146.679 568.616 147.137 568.14 148.051 568.14C148.966 568.14 149.423 568.616 149.423 569.568V570.772C149.797 569.932 150.357 569.288 151.103 568.84C151.869 568.392 152.793 568.131 153.875 568.056C154.566 568 154.939 568.373 154.995 569.176C155.07 569.997 154.669 570.445 153.791 570.52L153.259 570.576C150.777 570.819 149.535 572.097 149.535 574.412V580.768C149.535 581.72 149.059 582.196 148.107 582.196ZM163.714 582.252C161.997 582.252 160.718 581.813 159.878 580.936C159.038 580.059 158.618 578.789 158.618 577.128V570.52H156.938C156.154 570.52 155.762 570.156 155.762 569.428C155.762 568.7 156.154 568.336 156.938 568.336H158.618V565.452C158.618 564.5 159.094 564.024 160.046 564.024C160.98 564.024 161.446 564.5 161.446 565.452V568.336H164.722C165.506 568.336 165.898 568.7 165.898 569.428C165.898 570.156 165.506 570.52 164.722 570.52H161.446V576.904C161.446 577.893 161.652 578.64 162.062 579.144C162.492 579.648 163.182 579.9 164.134 579.9C164.47 579.9 164.76 579.872 165.002 579.816C165.245 579.741 165.46 579.695 165.646 579.676C165.852 579.676 166.02 579.751 166.15 579.9C166.281 580.031 166.346 580.292 166.346 580.684C166.346 580.983 166.29 581.253 166.178 581.496C166.085 581.72 165.908 581.869 165.646 581.944C165.422 582.037 165.114 582.112 164.722 582.168C164.349 582.224 164.013 582.252 163.714 582.252ZM176.956 582.196C176.022 582.196 175.556 581.72 175.556 580.768V569.568C175.556 568.616 176.013 568.14 176.928 568.14C177.842 568.14 178.3 568.616 178.3 569.568V570.548C178.71 569.764 179.28 569.157 180.008 568.728C180.736 568.299 181.585 568.084 182.556 568.084C184.646 568.084 186 568.999 186.616 570.828C187.045 569.969 187.661 569.297 188.464 568.812C189.266 568.327 190.181 568.084 191.208 568.084C194.269 568.084 195.8 569.913 195.8 573.572V580.768C195.8 581.72 195.324 582.196 194.372 582.196C193.438 582.196 192.972 581.72 192.972 580.768V573.712C192.972 572.555 192.766 571.705 192.356 571.164C191.964 570.623 191.31 570.352 190.396 570.352C189.369 570.352 188.557 570.716 187.96 571.444C187.362 572.153 187.064 573.124 187.064 574.356V580.768C187.064 581.72 186.597 582.196 185.664 582.196C184.712 582.196 184.236 581.72 184.236 580.768V573.712C184.236 572.555 184.04 571.705 183.648 571.164C183.256 570.623 182.602 570.352 181.688 570.352C180.661 570.352 179.849 570.716 179.252 571.444C178.673 572.153 178.384 573.124 178.384 574.356V580.768C178.384 581.72 177.908 582.196 176.956 582.196ZM204.122 582.252C203.17 582.252 202.32 582.065 201.574 581.692C200.827 581.319 200.23 580.815 199.782 580.18C199.352 579.545 199.138 578.827 199.138 578.024C199.138 577.016 199.39 576.223 199.894 575.644C200.416 575.065 201.266 574.645 202.442 574.384C203.636 574.123 205.242 573.992 207.258 573.992H208.21V573.264C208.21 572.2 207.986 571.435 207.538 570.968C207.09 570.501 206.352 570.268 205.326 570.268C204.728 570.268 204.103 570.343 203.45 570.492C202.815 570.641 202.152 570.893 201.462 571.248C201.07 571.435 200.743 571.463 200.482 571.332C200.239 571.201 200.071 570.996 199.978 570.716C199.884 570.436 199.894 570.147 200.006 569.848C200.118 569.549 200.351 569.325 200.706 569.176C201.527 568.803 202.339 568.532 203.142 568.364C203.944 568.177 204.7 568.084 205.41 568.084C207.276 568.084 208.658 568.532 209.554 569.428C210.45 570.305 210.898 571.687 210.898 573.572V580.768C210.898 581.72 210.459 582.196 209.582 582.196C208.686 582.196 208.238 581.72 208.238 580.768V579.732C207.902 580.516 207.379 581.132 206.67 581.58C205.96 582.028 205.111 582.252 204.122 582.252ZM204.682 580.236C205.69 580.236 206.53 579.881 207.202 579.172C207.874 578.463 208.21 577.567 208.21 576.484V575.728H207.286C205.923 575.728 204.85 575.793 204.066 575.924C203.3 576.055 202.75 576.279 202.414 576.596C202.096 576.895 201.938 577.315 201.938 577.856C201.938 578.565 202.18 579.144 202.666 579.592C203.151 580.021 203.823 580.236 204.682 580.236ZM216.193 582.196C215.259 582.196 214.793 581.72 214.793 580.768V569.568C214.793 568.616 215.25 568.14 216.165 568.14C217.079 568.14 217.537 568.616 217.537 569.568V570.604C218.003 569.783 218.638 569.157 219.441 568.728C220.262 568.299 221.177 568.084 222.185 568.084C225.414 568.084 227.029 569.913 227.029 573.572V580.768C227.029 581.72 226.562 582.196 225.629 582.196C224.677 582.196 224.201 581.72 224.201 580.768V573.74C224.201 572.564 223.967 571.705 223.501 571.164C223.053 570.623 222.343 570.352 221.373 570.352C220.234 570.352 219.319 570.716 218.629 571.444C217.957 572.153 217.621 573.096 217.621 574.272V580.768C217.621 581.72 217.145 582.196 216.193 582.196ZM235.294 582.252C234.342 582.252 233.492 582.065 232.746 581.692C231.999 581.319 231.402 580.815 230.954 580.18C230.524 579.545 230.31 578.827 230.31 578.024C230.31 577.016 230.562 576.223 231.066 575.644C231.588 575.065 232.438 574.645 233.614 574.384C234.808 574.123 236.414 573.992 238.43 573.992H239.382V573.264C239.382 572.2 239.158 571.435 238.71 570.968C238.262 570.501 237.524 570.268 236.498 570.268C235.9 570.268 235.275 570.343 234.622 570.492C233.987 570.641 233.324 570.893 232.633 571.248C232.242 571.435 231.915 571.463 231.654 571.332C231.411 571.201 231.243 570.996 231.15 570.716C231.056 570.436 231.066 570.147 231.178 569.848C231.29 569.549 231.523 569.325 231.878 569.176C232.699 568.803 233.511 568.532 234.314 568.364C235.116 568.177 235.872 568.084 236.582 568.084C238.448 568.084 239.83 568.532 240.726 569.428C241.622 570.305 242.07 571.687 242.07 573.572V580.768C242.07 581.72 241.631 582.196 240.754 582.196C239.858 582.196 239.41 581.72 239.41 580.768V579.732C239.074 580.516 238.551 581.132 237.842 581.58C237.132 582.028 236.283 582.252 235.294 582.252ZM235.854 580.236C236.862 580.236 237.702 579.881 238.374 579.172C239.046 578.463 239.382 577.567 239.382 576.484V575.728H238.458C237.095 575.728 236.022 575.793 235.238 575.924C234.472 576.055 233.922 576.279 233.586 576.596C233.268 576.895 233.11 577.315 233.11 577.856C233.11 578.565 233.352 579.144 233.838 579.592C234.323 580.021 234.995 580.236 235.854 580.236ZM252.153 587.292C251.145 587.292 250.165 587.189 249.213 586.984C248.279 586.779 247.43 586.443 246.665 585.976C246.329 585.789 246.123 585.556 246.049 585.276C245.974 584.996 246.002 584.725 246.133 584.464C246.282 584.203 246.478 584.007 246.721 583.876C246.982 583.764 247.262 583.792 247.561 583.96C248.382 584.408 249.157 584.707 249.885 584.856C250.631 585.024 251.322 585.108 251.957 585.108C254.57 585.108 255.877 583.801 255.877 581.188V579.032C255.485 579.853 254.869 580.497 254.029 580.964C253.207 581.431 252.283 581.664 251.257 581.664C250.025 581.664 248.951 581.384 248.037 580.824C247.122 580.245 246.413 579.452 245.909 578.444C245.405 577.417 245.153 576.223 245.153 574.86C245.153 573.516 245.405 572.34 245.909 571.332C246.413 570.305 247.122 569.512 248.037 568.952C248.951 568.373 250.025 568.084 251.257 568.084C252.283 568.084 253.198 568.317 254.001 568.784C254.822 569.232 255.429 569.848 255.821 570.632V569.568C255.821 568.616 256.287 568.14 257.221 568.14C258.154 568.14 258.621 568.616 258.621 569.568V580.852C258.621 582.999 258.07 584.604 256.969 585.668C255.867 586.751 254.262 587.292 252.153 587.292ZM251.929 579.452C253.123 579.452 254.075 579.041 254.785 578.22C255.494 577.399 255.849 576.279 255.849 574.86C255.849 573.441 255.494 572.331 254.785 571.528C254.075 570.707 253.123 570.296 251.929 570.296C250.734 570.296 249.782 570.707 249.073 571.528C248.363 572.331 248.009 573.441 248.009 574.86C248.009 576.279 248.363 577.399 249.073 578.22C249.782 579.041 250.734 579.452 251.929 579.452ZM263.99 565.284C263.43 565.284 262.991 565.144 262.674 564.864C262.375 564.584 262.226 564.192 262.226 563.688C262.226 562.624 262.814 562.092 263.99 562.092C265.166 562.092 265.754 562.624 265.754 563.688C265.754 564.752 265.166 565.284 263.99 565.284ZM263.99 582.168C263.056 582.168 262.59 581.655 262.59 580.628V569.708C262.59 568.7 263.056 568.196 263.99 568.196C264.942 568.196 265.418 568.7 265.418 569.708V580.628C265.418 581.655 264.942 582.168 263.99 582.168ZM270.798 582.196C269.865 582.196 269.398 581.72 269.398 580.768V569.568C269.398 568.616 269.855 568.14 270.77 568.14C271.685 568.14 272.142 568.616 272.142 569.568V570.604C272.609 569.783 273.243 569.157 274.046 568.728C274.867 568.299 275.782 568.084 276.79 568.084C280.019 568.084 281.634 569.913 281.634 573.572V580.768C281.634 581.72 281.167 582.196 280.234 582.196C279.282 582.196 278.806 581.72 278.806 580.768V573.74C278.806 572.564 278.573 571.705 278.106 571.164C277.658 570.623 276.949 570.352 275.978 570.352C274.839 570.352 273.925 570.716 273.234 571.444C272.562 572.153 272.226 573.096 272.226 574.272V580.768C272.226 581.72 271.75 582.196 270.798 582.196ZM291.719 587.292C290.711 587.292 289.731 587.189 288.779 586.984C287.846 586.779 286.996 586.443 286.231 585.976C285.895 585.789 285.69 585.556 285.615 585.276C285.54 584.996 285.568 584.725 285.699 584.464C285.848 584.203 286.044 584.007 286.287 583.876C286.548 583.764 286.828 583.792 287.127 583.96C287.948 584.408 288.723 584.707 289.451 584.856C290.198 585.024 290.888 585.108 291.523 585.108C294.136 585.108 295.443 583.801 295.443 581.188V579.032C295.051 579.853 294.435 580.497 293.595 580.964C292.774 581.431 291.85 581.664 290.823 581.664C289.591 581.664 288.518 581.384 287.603 580.824C286.688 580.245 285.979 579.452 285.475 578.444C284.971 577.417 284.719 576.223 284.719 574.86C284.719 573.516 284.971 572.34 285.475 571.332C285.979 570.305 286.688 569.512 287.603 568.952C288.518 568.373 289.591 568.084 290.823 568.084C291.85 568.084 292.764 568.317 293.567 568.784C294.388 569.232 294.995 569.848 295.387 570.632V569.568C295.387 568.616 295.854 568.14 296.787 568.14C297.72 568.14 298.187 568.616 298.187 569.568V580.852C298.187 582.999 297.636 584.604 296.535 585.668C295.434 586.751 293.828 587.292 291.719 587.292ZM291.495 579.452C292.69 579.452 293.642 579.041 294.351 578.22C295.06 577.399 295.415 576.279 295.415 574.86C295.415 573.441 295.06 572.331 294.351 571.528C293.642 570.707 292.69 570.296 291.495 570.296C290.3 570.296 289.348 570.707 288.639 571.528C287.93 572.331 287.575 573.441 287.575 574.86C287.575 576.279 287.93 577.399 288.639 578.22C289.348 579.041 290.3 579.452 291.495 579.452ZM311.522 587.292C310.103 587.292 309.394 586.573 309.394 585.136V570.156C309.394 568.737 310.084 568.028 311.466 568.028C312.866 568.028 313.566 568.737 313.566 570.156V570.24C313.958 569.549 314.536 568.999 315.302 568.588C316.067 568.177 316.926 567.972 317.878 567.972C319.072 567.972 320.118 568.261 321.014 568.84C321.928 569.419 322.638 570.24 323.142 571.304C323.646 572.368 323.898 573.637 323.898 575.112C323.898 576.587 323.646 577.865 323.142 578.948C322.638 580.012 321.928 580.843 321.014 581.44C320.118 582.019 319.072 582.308 317.878 582.308C316.963 582.308 316.123 582.112 315.358 581.72C314.611 581.328 314.032 580.805 313.622 580.152V585.136C313.622 586.573 312.922 587.292 311.522 587.292ZM316.618 579.144C317.514 579.144 318.242 578.817 318.802 578.164C319.362 577.511 319.642 576.493 319.642 575.112C319.642 573.749 319.362 572.751 318.802 572.116C318.242 571.463 317.514 571.136 316.618 571.136C315.703 571.136 314.966 571.463 314.406 572.116C313.846 572.751 313.566 573.749 313.566 575.112C313.566 576.493 313.846 577.511 314.406 578.164C314.966 578.817 315.703 579.144 316.618 579.144ZM328.667 582.252C327.211 582.252 326.483 581.533 326.483 580.096V570.156C326.483 568.737 327.174 568.028 328.555 568.028C329.937 568.028 330.627 568.737 330.627 570.156V570.66C331.299 568.999 332.69 568.103 334.799 567.972C335.266 567.935 335.621 568.056 335.863 568.336C336.125 568.597 336.265 569.036 336.283 569.652C336.321 570.231 336.199 570.688 335.919 571.024C335.658 571.36 335.21 571.565 334.575 571.64L333.931 571.696C331.841 571.901 330.795 572.965 330.795 574.888V580.096C330.795 581.533 330.086 582.252 328.667 582.252ZM344.384 582.308C342.91 582.308 341.622 582.019 340.52 581.44C339.438 580.843 338.598 580.012 338 578.948C337.403 577.865 337.104 576.587 337.104 575.112C337.104 573.656 337.403 572.396 338 571.332C338.598 570.249 339.438 569.419 340.52 568.84C341.622 568.261 342.91 567.972 344.384 567.972C345.859 567.972 347.138 568.261 348.22 568.84C349.322 569.419 350.171 570.249 350.768 571.332C351.384 572.396 351.692 573.656 351.692 575.112C351.692 576.587 351.384 577.865 350.768 578.948C350.171 580.012 349.322 580.843 348.22 581.44C347.138 582.019 345.859 582.308 344.384 582.308ZM344.384 579.144C345.28 579.144 346.008 578.817 346.568 578.164C347.147 577.511 347.436 576.493 347.436 575.112C347.436 573.749 347.147 572.751 346.568 572.116C346.008 571.463 345.28 571.136 344.384 571.136C343.488 571.136 342.76 571.463 342.2 572.116C341.64 572.751 341.36 573.749 341.36 575.112C341.36 576.493 341.64 577.511 342.2 578.164C342.76 578.817 343.488 579.144 344.384 579.144ZM360.957 582.308C359.463 582.308 358.157 582.019 357.037 581.44C355.935 580.843 355.086 580.003 354.489 578.92C353.891 577.837 353.593 576.559 353.593 575.084C353.593 573.609 353.891 572.34 354.489 571.276C355.086 570.212 355.935 569.4 357.037 568.84C358.157 568.261 359.463 567.972 360.957 567.972C361.535 567.972 362.151 568.047 362.805 568.196C363.477 568.327 364.121 568.56 364.737 568.896C365.203 569.12 365.493 569.437 365.605 569.848C365.717 570.24 365.689 570.632 365.521 571.024C365.371 571.416 365.119 571.705 364.765 571.892C364.429 572.06 364.027 572.023 363.561 571.78C362.814 571.388 362.086 571.192 361.377 571.192C360.275 571.192 359.417 571.537 358.801 572.228C358.203 572.9 357.905 573.861 357.905 575.112C357.905 576.344 358.203 577.315 358.801 578.024C359.417 578.715 360.275 579.06 361.377 579.06C361.713 579.06 362.067 579.023 362.441 578.948C362.814 578.855 363.187 578.705 363.561 578.5C364.027 578.257 364.429 578.229 364.765 578.416C365.119 578.603 365.362 578.892 365.493 579.284C365.623 579.657 365.633 580.049 365.521 580.46C365.409 580.871 365.129 581.188 364.681 581.412C364.046 581.729 363.411 581.953 362.777 582.084C362.142 582.233 361.535 582.308 360.957 582.308ZM374.502 582.308C372.878 582.308 371.478 582.019 370.302 581.44C369.145 580.843 368.249 580.012 367.614 578.948C366.998 577.865 366.69 576.596 366.69 575.14C366.69 573.721 366.989 572.48 367.586 571.416C368.202 570.333 369.033 569.493 370.078 568.896C371.142 568.28 372.365 567.972 373.746 567.972C375.744 567.972 377.33 568.607 378.506 569.876C379.682 571.127 380.27 572.825 380.27 574.972C380.27 575.681 379.832 576.036 378.954 576.036H370.722C370.872 577.119 371.264 577.912 371.898 578.416C372.552 578.901 373.448 579.144 374.586 579.144C375.034 579.144 375.538 579.097 376.098 579.004C376.677 578.892 377.228 578.705 377.75 578.444C378.292 578.183 378.749 578.136 379.122 578.304C379.496 578.453 379.748 578.715 379.878 579.088C380.028 579.461 380.028 579.853 379.878 580.264C379.748 580.656 379.44 580.983 378.954 581.244C378.301 581.599 377.573 581.86 376.77 582.028C375.986 582.215 375.23 582.308 374.502 582.308ZM373.914 570.772C373.018 570.772 372.29 571.043 371.73 571.584C371.189 572.125 370.853 572.881 370.722 573.852H376.77C376.658 571.799 375.706 570.772 373.914 570.772ZM387.993 582.308C387.172 582.308 386.323 582.233 385.445 582.084C384.587 581.935 383.803 581.683 383.093 581.328C382.627 581.085 382.319 580.777 382.169 580.404C382.039 580.031 382.039 579.667 382.169 579.312C382.3 578.957 382.533 578.696 382.869 578.528C383.205 578.341 383.597 578.341 384.045 578.528C384.811 578.845 385.511 579.069 386.145 579.2C386.799 579.331 387.424 579.396 388.021 579.396C388.805 579.396 389.384 579.275 389.757 579.032C390.131 578.771 390.317 578.435 390.317 578.024C390.317 577.371 389.841 576.96 388.889 576.792L385.949 576.26C384.773 576.055 383.877 575.635 383.261 575C382.645 574.365 382.337 573.535 382.337 572.508C382.337 571.575 382.599 570.772 383.121 570.1C383.644 569.428 384.363 568.905 385.277 568.532C386.192 568.159 387.247 567.972 388.441 567.972C390.084 567.972 391.54 568.289 392.809 568.924C393.239 569.129 393.5 569.419 393.593 569.792C393.705 570.165 393.687 570.529 393.537 570.884C393.388 571.239 393.145 571.509 392.809 571.696C392.473 571.864 392.072 571.845 391.605 571.64C390.989 571.36 390.429 571.164 389.925 571.052C389.421 570.921 388.945 570.856 388.497 570.856C387.657 570.856 387.051 570.996 386.677 571.276C386.304 571.537 386.117 571.873 386.117 572.284C386.117 572.937 386.556 573.348 387.433 573.516L390.373 574.048C391.587 574.253 392.511 574.664 393.145 575.28C393.78 575.877 394.097 576.699 394.097 577.744C394.097 579.181 393.537 580.301 392.417 581.104C391.297 581.907 389.823 582.308 387.993 582.308ZM401.775 582.308C400.953 582.308 400.104 582.233 399.227 582.084C398.368 581.935 397.584 581.683 396.875 581.328C396.408 581.085 396.1 580.777 395.951 580.404C395.82 580.031 395.82 579.667 395.951 579.312C396.081 578.957 396.315 578.696 396.651 578.528C396.987 578.341 397.379 578.341 397.827 578.528C398.592 578.845 399.292 579.069 399.927 579.2C400.58 579.331 401.205 579.396 401.803 579.396C402.587 579.396 403.165 579.275 403.539 579.032C403.912 578.771 404.099 578.435 404.099 578.024C404.099 577.371 403.623 576.96 402.671 576.792L399.731 576.26C398.555 576.055 397.659 575.635 397.043 575C396.427 574.365 396.119 573.535 396.119 572.508C396.119 571.575 396.38 570.772 396.903 570.1C397.425 569.428 398.144 568.905 399.059 568.532C399.973 568.159 401.028 567.972 402.223 567.972C403.865 567.972 405.321 568.289 406.591 568.924C407.02 569.129 407.281 569.419 407.375 569.792C407.487 570.165 407.468 570.529 407.319 570.884C407.169 571.239 406.927 571.509 406.591 571.696C406.255 571.864 405.853 571.845 405.387 571.64C404.771 571.36 404.211 571.164 403.707 571.052C403.203 570.921 402.727 570.856 402.279 570.856C401.439 570.856 400.832 570.996 400.459 571.276C400.085 571.537 399.899 571.873 399.899 572.284C399.899 572.937 400.337 573.348 401.215 573.516L404.155 574.048C405.368 574.253 406.292 574.664 406.927 575.28C407.561 575.877 407.879 576.699 407.879 577.744C407.879 579.181 407.319 580.301 406.199 581.104C405.079 581.907 403.604 582.308 401.775 582.308ZM417.432 582.308C415.808 582.308 414.408 582.019 413.232 581.44C412.075 580.843 411.179 580.012 410.544 578.948C409.928 577.865 409.62 576.596 409.62 575.14C409.62 573.721 409.919 572.48 410.516 571.416C411.132 570.333 411.963 569.493 413.008 568.896C414.072 568.28 415.295 567.972 416.676 567.972C418.673 567.972 420.26 568.607 421.436 569.876C422.612 571.127 423.2 572.825 423.2 574.972C423.2 575.681 422.761 576.036 421.884 576.036H413.652C413.801 577.119 414.193 577.912 414.828 578.416C415.481 578.901 416.377 579.144 417.516 579.144C417.964 579.144 418.468 579.097 419.028 579.004C419.607 578.892 420.157 578.705 420.68 578.444C421.221 578.183 421.679 578.136 422.052 578.304C422.425 578.453 422.677 578.715 422.808 579.088C422.957 579.461 422.957 579.853 422.808 580.264C422.677 580.656 422.369 580.983 421.884 581.244C421.231 581.599 420.503 581.86 419.7 582.028C418.916 582.215 418.16 582.308 417.432 582.308ZM416.844 570.772C415.948 570.772 415.22 571.043 414.66 571.584C414.119 572.125 413.783 572.881 413.652 573.852H419.7C419.588 571.799 418.636 570.772 416.844 570.772ZM430.923 582.308C430.102 582.308 429.252 582.233 428.375 582.084C427.516 581.935 426.732 581.683 426.023 581.328C425.556 581.085 425.248 580.777 425.099 580.404C424.968 580.031 424.968 579.667 425.099 579.312C425.23 578.957 425.463 578.696 425.799 578.528C426.135 578.341 426.527 578.341 426.975 578.528C427.74 578.845 428.44 579.069 429.075 579.2C429.728 579.331 430.354 579.396 430.951 579.396C431.735 579.396 432.314 579.275 432.687 579.032C433.06 578.771 433.247 578.435 433.247 578.024C433.247 577.371 432.771 576.96 431.819 576.792L428.879 576.26C427.703 576.055 426.807 575.635 426.191 575C425.575 574.365 425.267 573.535 425.267 572.508C425.267 571.575 425.528 570.772 426.051 570.1C426.574 569.428 427.292 568.905 428.207 568.532C429.122 568.159 430.176 567.972 431.371 567.972C433.014 567.972 434.47 568.289 435.739 568.924C436.168 569.129 436.43 569.419 436.523 569.792C436.635 570.165 436.616 570.529 436.467 570.884C436.318 571.239 436.075 571.509 435.739 571.696C435.403 571.864 435.002 571.845 434.535 571.64C433.919 571.36 433.359 571.164 432.855 571.052C432.351 570.921 431.875 570.856 431.427 570.856C430.587 570.856 429.98 570.996 429.607 571.276C429.234 571.537 429.047 571.873 429.047 572.284C429.047 572.937 429.486 573.348 430.363 573.516L433.303 574.048C434.516 574.253 435.44 574.664 436.075 575.28C436.71 575.877 437.027 576.699 437.027 577.744C437.027 579.181 436.467 580.301 435.347 581.104C434.227 581.907 432.752 582.308 430.923 582.308ZM449.305 575.924C448.427 575.924 447.942 575.411 447.849 574.384L446.953 564.808C446.859 563.987 447.018 563.315 447.429 562.792C447.858 562.269 448.483 562.008 449.305 562.008C450.107 562.008 450.714 562.269 451.125 562.792C451.535 563.315 451.694 563.987 451.601 564.808L450.705 574.384C450.593 575.411 450.126 575.924 449.305 575.924ZM449.305 582.14C448.558 582.14 447.961 581.916 447.513 581.468C447.083 581.02 446.869 580.441 446.869 579.732C446.869 579.041 447.083 578.481 447.513 578.052C447.961 577.604 448.558 577.38 449.305 577.38C450.051 577.38 450.63 577.604 451.041 578.052C451.47 578.481 451.685 579.041 451.685 579.732C451.685 580.441 451.47 581.02 451.041 581.468C450.63 581.916 450.051 582.14 449.305 582.14Z" fill="#6E4998"/>
</svg>
