<svg id="Layer_1" data-name="Layer 1" xmlns="http://www.w3.org/2000/svg" viewBox="0 0 1451.98 510.18"><defs><style>.cls-1{fill:#6e4998;}</style></defs><path class="cls-1" d="M92.84,353A75.79,75.79,0,0,0,99,382.64,91,91,0,0,0,116,408.93a88.28,88.28,0,0,0,25,19,70.08,70.08,0,0,0,30.91,7.65q17.23,0,30.45-4.3t26.61-15.46a103.27,103.27,0,0,1,14.19-10,32.72,32.72,0,0,1,17-4.61,30.84,30.84,0,0,1,11.46,2.38,45,45,0,0,1,12.45,7.81,30.62,30.62,0,0,1,8.11,11.31,33.27,33.27,0,0,1,2.55,13.69,37.61,37.61,0,0,1-3.19,14.19,45.93,45.93,0,0,1-9.08,13.38,131.57,131.57,0,0,1-47,30.6A157.69,157.69,0,0,1,178.24,505a155.63,155.63,0,0,1-109-43.65,150.1,150.1,0,0,1-33.15-48A145.9,145.9,0,0,1,24,354a.87.87,0,0,0,.31-.64H24a148.14,148.14,0,0,1,12.11-59.76,151,151,0,0,1,33.15-48.42,155.91,155.91,0,0,1,49.07-32.37A153.1,153.1,0,0,1,178.24,201a164.4,164.4,0,0,1,57.22,10,126.3,126.3,0,0,1,47,30.11,44.14,44.14,0,0,1,9.26,13.22,38.05,38.05,0,0,1,3.34,14.35,31.74,31.74,0,0,1-2.72,13.69A33.34,33.34,0,0,1,283.72,294a43.74,43.74,0,0,1-12.11,7.65,30.67,30.67,0,0,1-11.15,2.23,33.07,33.07,0,0,1-17-4.61,118.53,118.53,0,0,1-14.5-10.06,94.48,94.48,0,0,0-26.45-14.66,85,85,0,0,0-27.42-4.46,75.68,75.68,0,0,0-31.22,6.69A83.69,83.69,0,0,0,117.69,295a90.37,90.37,0,0,0-17.85,26.46,75.68,75.68,0,0,0-6.69,31.22Z" transform="translate(-24.01 -105.06)"/><path class="cls-1" d="M392.8,364.76a76.33,76.33,0,0,0,6.07,30.42A74.87,74.87,0,0,0,440.29,436a79.37,79.37,0,0,0,30.6,5.92,74.81,74.81,0,0,0,30.42-6.23,76.8,76.8,0,0,0,24.54-16.88,80.75,80.75,0,0,0,16.41-25,78.33,78.33,0,0,0,6.07-30.91V305.16a31.55,31.55,0,0,1,2.85-13.22,38.22,38.22,0,0,1,7.66-11,34.17,34.17,0,0,1,11.3-7.47,35,35,0,0,1,13.57-2.72,32.42,32.42,0,0,1,13.38,2.72,33.59,33.59,0,0,1,10.66,7.47,34.45,34.45,0,0,1,9.72,24.22v58.95a142,142,0,0,1-8.61,49.56,150.49,150.49,0,0,1-23.57,42.22,147.51,147.51,0,0,1-35.69,32.19,143.3,143.3,0,0,1-44.94,19.14v73.29A34.94,34.94,0,0,1,502,594.2a33.14,33.14,0,0,1-7.49,11,37,37,0,0,1-11,7.34,33.05,33.05,0,0,1-13.23,2.69c-10,0-18.28-3.29-24.84-9.88s-9.88-14.86-9.88-24.84V506.88a144.27,144.27,0,0,1-44.64-19.43,150.42,150.42,0,0,1-35.37-32.18,147.93,147.93,0,0,1-23.42-42.07,142.73,142.73,0,0,1-8.43-49.09V245.56a32.55,32.55,0,0,1,2.7-13.23,37.12,37.12,0,0,1,7.34-11,32.56,32.56,0,0,1,11-7.47,34.29,34.29,0,0,1,26.77,0,34.58,34.58,0,0,1,11.15,7.47,35.74,35.74,0,0,1,7.49,11,33.06,33.06,0,0,1,2.7,13.23Z" transform="translate(-24.01 -105.06)"/><path class="cls-1" d="M754.06,353a144.94,144.94,0,0,1,12.11-59.1A156.83,156.83,0,0,1,799,245.6,154.49,154.49,0,0,1,847.27,213a145.71,145.71,0,0,1,58.79-12,147.89,147.89,0,0,1,59.29,12,151.74,151.74,0,0,1,80.6,80.94,153.52,153.52,0,0,1,0,118.05,151.51,151.51,0,0,1-80.6,81.13A148.38,148.38,0,0,1,906.06,505a146.2,146.2,0,0,1-58.79-11.93,154.4,154.4,0,0,1-81.1-81.13A145.26,145.26,0,0,1,754.06,353m69.14,0a79.9,79.9,0,0,0,6.54,32,84,84,0,0,0,44.14,44.3,79.7,79.7,0,0,0,32.18,6.53,80.85,80.85,0,0,0,32.34-6.53A82,82,0,0,0,982.23,385a83.25,83.25,0,0,0-17.53-90.67,83.83,83.83,0,0,0-26.3-17.68,82.46,82.46,0,0,0-64.37,0,85.56,85.56,0,0,0-26.45,17.68,82.28,82.28,0,0,0-17.84,26.3A80.68,80.68,0,0,0,823.2,353" transform="translate(-24.01 -105.06)"/><path class="cls-1" d="M1172.29,353a145,145,0,0,1,12.12-59.1,156.8,156.8,0,0,1,32.8-48.29A154.6,154.6,0,0,1,1265.5,213a145.8,145.8,0,0,1,58.8-12,147.81,147.81,0,0,1,59.28,12,151.72,151.72,0,0,1,80.61,80.94A148.61,148.61,0,0,1,1476,353V465.81a34.74,34.74,0,0,1-10.19,24.84,36.39,36.39,0,0,1-11.31,7.66,34.16,34.16,0,0,1-13.88,2.87c-8.27,0-15.3-2.43-21-7.34a35.13,35.13,0,0,1-11.46-18.46A155.93,155.93,0,0,1,1368.75,497a125.11,125.11,0,0,1-44.45,8,146.28,146.28,0,0,1-58.8-11.93,154.34,154.34,0,0,1-81.09-81.13A145.27,145.27,0,0,1,1172.29,353m69.15,0a80.06,80.06,0,0,0,6.53,32,84.07,84.07,0,0,0,44.14,44.3,79.75,79.75,0,0,0,32.19,6.53,80.85,80.85,0,0,0,32.34-6.53,82.45,82.45,0,0,0,26.29-17.84A83.45,83.45,0,0,0,1400.47,385a83.22,83.22,0,0,0-17.54-90.67,83.67,83.67,0,0,0-26.29-17.68,82.46,82.46,0,0,0-64.37,0,85.56,85.56,0,0,0-26.45,17.68,82.47,82.47,0,0,0-17.85,26.3,80.85,80.85,0,0,0-6.53,32.34" transform="translate(-24.01 -105.06)"/><path class="cls-1" d="M728,466.31c0,4.87-.91,18.56-2.7,22.7a36.31,36.31,0,0,1-7.18,10.85A30.42,30.42,0,0,1,707.45,507a34.2,34.2,0,0,1-13.23,2.57A36.43,36.43,0,0,1,680.69,507a33.46,33.46,0,0,1-11.34-7.15A36.34,36.34,0,0,1,661.7,489c-1.89-4.14-2.85-17.83-2.85-22.7V310.5a17.4,17.4,0,0,1,.31-3.84,83.48,83.48,0,0,0-6.38-29.31,76.3,76.3,0,0,0-15.61-23.91,73.47,73.47,0,0,0-23.11-16.08,70.61,70.61,0,0,0-29.15-5.91,74.82,74.82,0,0,0-30,5.91,68.08,68.08,0,0,0-23.41,16.39,77.92,77.92,0,0,0-15.31,24.72,82.42,82.42,0,0,0-5.57,30.42v46.8a35.69,35.69,0,0,1-2.54,13.53,33,33,0,0,1-17.85,18,33.86,33.86,0,0,1-13.41,2.57,36.32,36.32,0,0,1-24.69-9.72,34.71,34.71,0,0,1-7.8-10.85,31.79,31.79,0,0,1-2.88-13.53v-46.8a147.88,147.88,0,0,1,41.29-103.74,141.56,141.56,0,0,1,45.57-31.38,139.83,139.83,0,0,1,56.56-11.46q30.62,0,56.72,11.46a140.3,140.3,0,0,1,45.25,31.38A148.79,148.79,0,0,1,728,308.89Z" transform="translate(-24.01 -105.06)"/><path class="cls-1" d="M1135.31,216.33a33.59,33.59,0,0,0-10.66-7.47,32.27,32.27,0,0,0-13.38-2.73,35,35,0,0,0-24.87,10.2,38.31,38.31,0,0,0-7.66,11,31.56,31.56,0,0,0-2.85,13.23V468.1a34,34,0,0,0,10.19,24.38,36.37,36.37,0,0,0,11.16,7.34,34.14,34.14,0,0,0,13.38,2.7,33.78,33.78,0,0,0,13.54-2.7,35.13,35.13,0,0,0,10.84-7.34,34.78,34.78,0,0,0,10-24.38V240.55a34.4,34.4,0,0,0-9.72-24.22" transform="translate(-24.01 -105.06)"/><path class="cls-1" d="M1072.49,143a38,38,0,1,1,38,38,38,38,0,0,1-38-38" transform="translate(-24.01 -105.06)"/></svg>