<svg xmlns="http://www.w3.org/2000/svg" xmlns:xlink="http://www.w3.org/1999/xlink" width="500" zoomAndPan="magnify" viewBox="0 0 375 374.999991" height="500" preserveAspectRatio="xMidYMid meet" version="1.0"><defs><g/><clipPath id="70e1d8840c"><path d="M 0 82.230469 L 210 82.230469 L 210 304.980469 L 0 304.980469 Z M 0 82.230469 " clip-rule="nonzero"/></clipPath></defs><g clip-path="url(#70e1d8840c)"><path fill="#00285b" d="M 74.488281 264.003906 L 97.246094 240.160156 C 105.40625 242.542969 113.175781 245.535156 120.53125 248.945312 L 116.414062 253.503906 C 137.835938 264.210938 154.996094 276.496094 168.726562 289.058594 C 172.574219 286.738281 176.269531 284.191406 179.792969 281.4375 C 159.121094 262.367188 117.894531 231.617188 66.125 230.546875 L 86.609375 209.085938 C 95.074219 211.101562 103.132812 213.8125 110.773438 217.03125 L 108.050781 220.042969 C 142.953125 237.488281 166.550781 259.121094 182.417969 279.320312 C 185.042969 277.140625 187.566406 274.839844 189.980469 272.429688 C 168.554688 246.808594 128.691406 209.601562 73.65625 202.496094 L 163.390625 120.910156 C 163.390625 120.910156 186.585938 124.015625 209.859375 141.757812 C 191.230469 106.367188 154.128906 82.238281 111.386719 82.238281 C 49.945312 82.238281 0.140625 132.101562 0.140625 193.605469 C 0.140625 255.113281 49.945312 304.976562 111.386719 304.976562 C 130.117188 304.976562 147.765625 300.335938 163.25 292.152344 C 141.058594 278.457031 107.273438 262.136719 74.488281 264.003906 " fill-opacity="1" fill-rule="nonzero"/></g><g fill="#00285b" fill-opacity="1"><g transform="translate(118.808404, 194.249987)"><g><path d="M 13.023438 -3.925781 L 6.472656 -3.925781 L 6.472656 -7.199219 L 11.722656 -7.199219 L 11.722656 -11.125 L 6.472656 -11.125 L 6.472656 -14.398438 L 12.375 -14.398438 L 11.722656 -18.324219 L 1.25 -18.324219 L 1.25 0 L 12.375 0 Z M 13.023438 -3.925781 "/></g></g></g><g fill="#00285b" fill-opacity="1"><g transform="translate(133.081142, 194.249987)"><g><path d="M 9.898438 -3.925781 C 9.898438 -3.574219 9.722656 -3.273438 9.398438 -3.023438 C 9.074219 -2.75 8.597656 -2.625 7.949219 -2.625 C 7.398438 -2.625 6.847656 -2.726562 6.347656 -2.976562 C 5.847656 -3.199219 5.375 -3.476562 4.949219 -3.824219 C 4.5 -4.175781 4.125 -4.550781 3.773438 -4.949219 C 3.425781 -5.347656 3.125 -5.75 2.898438 -6.097656 L 0.75 -3.925781 C 1.351562 -3.175781 1.949219 -2.574219 2.550781 -2.074219 C 3.148438 -1.574219 3.773438 -1.175781 4.425781 -0.875 C 5.050781 -0.550781 5.699219 -0.324219 6.398438 -0.199219 C 7.097656 -0.0507812 7.824219 0 8.597656 0 C 9.75 0 10.722656 -0.175781 11.550781 -0.523438 C 12.375 -0.875 13.046875 -1.324219 13.597656 -1.875 C 14.125 -2.398438 14.523438 -2.976562 14.773438 -3.574219 C 15.023438 -4.175781 15.148438 -4.722656 15.148438 -5.222656 C 15.148438 -6.199219 14.921875 -7.050781 14.472656 -7.773438 C 14.023438 -8.5 13.449219 -9.125 12.773438 -9.675781 C 12.074219 -10.222656 11.347656 -10.699219 10.550781 -11.125 C 9.75 -11.523438 9.023438 -11.921875 8.347656 -12.273438 C 7.648438 -12.625 7.097656 -12.949219 6.648438 -13.296875 C 6.199219 -13.625 5.972656 -14 5.972656 -14.398438 C 5.972656 -14.722656 6.125 -15.023438 6.472656 -15.296875 C 6.800781 -15.546875 7.300781 -15.699219 7.949219 -15.699219 C 8.5 -15.699219 9.023438 -15.574219 9.523438 -15.347656 C 10.023438 -15.097656 10.5 -14.824219 10.949219 -14.472656 C 11.375 -14.125 11.773438 -13.75 12.125 -13.347656 C 12.472656 -12.949219 12.75 -12.574219 13 -12.222656 L 15.148438 -14.398438 C 13.949219 -15.824219 12.722656 -16.824219 11.472656 -17.421875 C 10.222656 -18.023438 8.824219 -18.324219 7.300781 -18.324219 C 6.148438 -18.324219 5.148438 -18.125 4.324219 -17.773438 C 3.5 -17.421875 2.824219 -16.972656 2.300781 -16.449219 C 1.75 -15.898438 1.375 -15.324219 1.125 -14.722656 C 0.875 -14.125 0.75 -13.574219 0.75 -13.097656 C 0.75 -12.097656 0.976562 -11.25 1.425781 -10.523438 C 1.875 -9.800781 2.425781 -9.175781 3.125 -8.625 C 3.800781 -8.074219 4.523438 -7.597656 5.324219 -7.199219 C 6.125 -6.773438 6.847656 -6.398438 7.523438 -6.050781 C 8.199219 -5.699219 8.773438 -5.347656 9.222656 -5.023438 C 9.675781 -4.675781 9.898438 -4.324219 9.898438 -3.925781 Z M 9.898438 -3.925781 "/></g></g></g><g fill="#00285b" fill-opacity="1"><g transform="translate(148.978621, 194.249987)"><g><path d="M 7.800781 -18.324219 L 1.25 -18.324219 L 1.25 0 L 6.472656 0 L 6.472656 -7.847656 L 7.800781 -7.847656 C 8.773438 -7.847656 9.699219 -7.925781 10.574219 -8.097656 C 11.449219 -8.273438 12.222656 -8.574219 12.875 -8.972656 C 13.523438 -9.375 14.023438 -9.925781 14.421875 -10.597656 C 14.796875 -11.273438 15 -12.097656 15 -13.097656 C 15 -14.074219 14.796875 -14.898438 14.421875 -15.574219 C 14.023438 -16.222656 13.523438 -16.773438 12.875 -17.171875 C 12.222656 -17.574219 11.449219 -17.875 10.574219 -18.046875 C 9.699219 -18.222656 8.773438 -18.324219 7.800781 -18.324219 Z M 6.472656 -10.472656 L 6.472656 -15.699219 C 7.023438 -15.699219 7.5 -15.625 7.925781 -15.472656 C 8.347656 -15.324219 8.699219 -15.125 8.972656 -14.875 C 9.25 -14.625 9.449219 -14.347656 9.597656 -14.046875 C 9.75 -13.722656 9.824219 -13.398438 9.824219 -13.074219 C 9.824219 -12.722656 9.75 -12.398438 9.597656 -12.097656 C 9.449219 -11.796875 9.25 -11.523438 8.972656 -11.273438 C 8.699219 -11.023438 8.347656 -10.847656 7.925781 -10.699219 C 7.5 -10.550781 7.023438 -10.472656 6.472656 -10.472656 Z M 6.472656 -10.472656 "/></g></g></g><g fill="#00285b" fill-opacity="1"><g transform="translate(164.726126, 194.249987)"><g><path d="M 15.648438 0 L 12.5 -8.800781 C 13.25 -9.199219 13.875 -9.722656 14.324219 -10.425781 C 14.773438 -11.125 15 -12 15 -13.097656 C 15 -14.074219 14.796875 -14.898438 14.421875 -15.574219 C 14.023438 -16.222656 13.523438 -16.773438 12.875 -17.171875 C 12.222656 -17.574219 11.449219 -17.875 10.574219 -18.046875 C 9.699219 -18.222656 8.773438 -18.324219 7.800781 -18.324219 L 1.25 -18.324219 L 1.25 0 L 6.472656 0 L 6.472656 -7.847656 L 7.800781 -7.847656 L 10.398438 0 Z M 6.472656 -10.472656 L 6.472656 -15.699219 C 7.023438 -15.699219 7.5 -15.625 7.925781 -15.472656 C 8.347656 -15.324219 8.699219 -15.125 8.972656 -14.875 C 9.25 -14.625 9.449219 -14.347656 9.597656 -14.046875 C 9.75 -13.722656 9.824219 -13.398438 9.824219 -13.074219 C 9.824219 -12.722656 9.75 -12.398438 9.597656 -12.097656 C 9.449219 -11.796875 9.25 -11.523438 8.972656 -11.273438 C 8.699219 -11.023438 8.347656 -10.847656 7.925781 -10.699219 C 7.5 -10.550781 7.023438 -10.472656 6.472656 -10.472656 Z M 6.472656 -10.472656 "/></g></g></g><g fill="#00285b" fill-opacity="1"><g transform="translate(181.123528, 194.249987)"><g><path d="M 1.25 -18.324219 L 1.25 0 L 6.472656 0 L 6.472656 -18.324219 Z M 1.25 -18.324219 "/></g></g></g><g fill="#00285b" fill-opacity="1"><g transform="translate(188.847306, 194.249987)"><g><path d="M 10.324219 -14.398438 L 14.898438 -14.398438 L 14.25 -18.324219 L 1.148438 -18.324219 L 0.5 -14.398438 L 5.074219 -14.398438 L 5.074219 0 L 10.324219 0 Z M 10.324219 -14.398438 "/></g></g></g><g fill="#00285b" fill-opacity="1"><g transform="translate(204.244872, 194.249987)"><g/></g></g><g fill="#00285b" fill-opacity="1"><g transform="translate(211.743681, 194.249987)"><g><path d="M 9.898438 -2.625 C 9.25 -2.625 8.675781 -2.800781 8.175781 -3.175781 C 7.675781 -3.550781 7.273438 -4.050781 6.949219 -4.675781 C 6.625 -5.273438 6.375 -5.972656 6.222656 -6.773438 C 6.050781 -7.550781 5.972656 -8.347656 5.972656 -9.175781 C 5.972656 -9.972656 6.050781 -10.773438 6.222656 -11.550781 C 6.375 -12.324219 6.625 -13.023438 6.949219 -13.648438 C 7.273438 -14.25 7.675781 -14.75 8.175781 -15.125 C 8.675781 -15.5 9.25 -15.699219 9.898438 -15.699219 C 10.375 -15.699219 10.824219 -15.574219 11.222656 -15.375 C 11.625 -15.171875 11.972656 -14.949219 12.273438 -14.722656 C 12.597656 -14.421875 12.898438 -14.097656 13.171875 -13.75 L 15.148438 -15.699219 C 14.722656 -16.171875 14.222656 -16.597656 13.671875 -17 C 13.171875 -17.324219 12.574219 -17.625 11.824219 -17.898438 C 11.074219 -18.171875 10.222656 -18.324219 9.25 -18.324219 C 7.824219 -18.324219 6.574219 -18.046875 5.523438 -17.523438 C 4.472656 -17 3.574219 -16.296875 2.875 -15.449219 C 2.175781 -14.574219 1.625 -13.597656 1.273438 -12.5 C 0.925781 -11.398438 0.75 -10.273438 0.75 -9.125 C 0.75 -7.972656 0.925781 -6.847656 1.273438 -5.75 C 1.625 -4.648438 2.148438 -3.699219 2.851562 -2.851562 C 3.550781 -2 4.449219 -1.300781 5.523438 -0.773438 C 6.574219 -0.25 7.824219 0 9.25 0 C 10.222656 0 11.074219 -0.125 11.824219 -0.398438 C 12.574219 -0.648438 13.171875 -0.949219 13.671875 -1.300781 C 14.222656 -1.675781 14.722656 -2.125 15.148438 -2.625 L 13.171875 -4.574219 C 12.898438 -4.199219 12.597656 -3.875 12.273438 -3.601562 C 11.972656 -3.351562 11.625 -3.125 11.222656 -2.925781 C 10.824219 -2.726562 10.375 -2.625 9.898438 -2.625 Z M 9.898438 -2.625 "/></g></g></g><g fill="#00285b" fill-opacity="1"><g transform="translate(227.64116, 194.249987)"><g><path d="M 9.125 -18.921875 C 7.722656 -18.921875 6.5 -18.625 5.449219 -18.074219 C 4.398438 -17.523438 3.550781 -16.773438 2.851562 -15.875 C 2.148438 -14.949219 1.625 -13.898438 1.273438 -12.75 C 0.925781 -11.574219 0.75 -10.375 0.75 -9.175781 C 0.75 -7.925781 0.925781 -6.722656 1.273438 -5.574219 C 1.625 -4.398438 2.148438 -3.351562 2.851562 -2.449219 C 3.550781 -1.523438 4.398438 -0.773438 5.449219 -0.226562 C 6.5 0.324219 7.722656 0.601562 9.125 0.601562 C 10.523438 0.601562 11.722656 0.324219 12.773438 -0.226562 C 13.824219 -0.773438 14.699219 -1.523438 15.398438 -2.449219 C 16.097656 -3.351562 16.625 -4.398438 16.972656 -5.574219 C 17.324219 -6.722656 17.5 -7.925781 17.5 -9.175781 C 17.5 -10.375 17.324219 -11.574219 16.972656 -12.75 C 16.625 -13.898438 16.097656 -14.949219 15.398438 -15.875 C 14.699219 -16.773438 13.824219 -17.523438 12.773438 -18.074219 C 11.722656 -18.625 10.523438 -18.921875 9.125 -18.921875 Z M 9.125 -2.199219 C 8.773438 -2.199219 8.425781 -2.324219 8.097656 -2.601562 C 7.75 -2.851562 7.449219 -3.273438 7.199219 -3.851562 C 6.925781 -4.398438 6.699219 -5.125 6.550781 -6 C 6.398438 -6.875 6.324219 -7.925781 6.324219 -9.175781 C 6.324219 -10.375 6.398438 -11.425781 6.550781 -12.324219 C 6.699219 -13.199219 6.925781 -13.921875 7.199219 -14.5 C 7.449219 -15.046875 7.75 -15.472656 8.097656 -15.75 C 8.425781 -16 8.773438 -16.148438 9.125 -16.148438 C 9.472656 -16.148438 9.800781 -16 10.148438 -15.75 C 10.472656 -15.472656 10.773438 -15.046875 11.050781 -14.5 C 11.300781 -13.921875 11.523438 -13.199219 11.675781 -12.324219 C 11.824219 -11.425781 11.921875 -10.375 11.921875 -9.175781 C 11.921875 -7.925781 11.824219 -6.875 11.675781 -6 C 11.523438 -5.125 11.300781 -4.398438 11.050781 -3.851562 C 10.773438 -3.273438 10.472656 -2.851562 10.148438 -2.601562 C 9.800781 -2.324219 9.472656 -2.199219 9.125 -2.199219 Z M 9.125 -2.199219 "/></g></g></g><g fill="#00285b" fill-opacity="1"><g transform="translate(245.888271, 194.249987)"><g><path d="M 20.871094 -18.324219 L 14.347656 -18.324219 L 11.074219 -6.875 L 7.800781 -18.324219 L 1.25 -18.324219 L 1.25 0 L 5.175781 0 L 5.175781 -9.148438 L 7.800781 0 L 13.023438 0 L 15.648438 -9.148438 L 15.648438 0 L 20.871094 0 Z M 20.871094 -18.324219 "/></g></g></g><g fill="#00285b" fill-opacity="1"><g transform="translate(268.009768, 194.249987)"><g><path d="M 20.871094 -18.324219 L 14.347656 -18.324219 L 11.074219 -6.875 L 7.800781 -18.324219 L 1.25 -18.324219 L 1.25 0 L 5.175781 0 L 5.175781 -9.148438 L 7.800781 0 L 13.023438 0 L 15.648438 -9.148438 L 15.648438 0 L 20.871094 0 Z M 20.871094 -18.324219 "/></g></g></g><g fill="#00285b" fill-opacity="1"><g transform="translate(290.131265, 194.249987)"><g><path d="M 16.449219 -18.324219 L 11.222656 -18.324219 L 11.222656 -9.148438 C 11.222656 -6.847656 11.023438 -5.199219 10.648438 -4.175781 C 10.25 -3.125 9.574219 -2.625 8.597656 -2.625 C 8.097656 -2.625 7.699219 -2.75 7.375 -3 C 7.023438 -3.25 6.75 -3.625 6.550781 -4.175781 C 6.347656 -4.699219 6.199219 -5.375 6.097656 -6.199219 C 6 -7 5.972656 -8 5.972656 -9.148438 L 5.972656 -18.324219 L 0.75 -18.324219 L 0.75 -9.148438 C 0.75 -8 0.875 -6.875 1.148438 -5.773438 C 1.398438 -4.675781 1.851562 -3.699219 2.476562 -2.851562 C 3.074219 -2 3.898438 -1.300781 4.898438 -0.773438 C 5.898438 -0.25 7.125 0 8.597656 0 C 10.050781 0 11.300781 -0.25 12.296875 -0.773438 C 13.296875 -1.300781 14.125 -2 14.722656 -2.851562 C 15.324219 -3.699219 15.773438 -4.675781 16.046875 -5.773438 C 16.296875 -6.875 16.449219 -8 16.449219 -9.148438 Z M 16.449219 -18.324219 "/></g></g></g><g fill="#00285b" fill-opacity="1"><g transform="translate(307.328541, 194.249987)"><g><path d="M 1.25 -18.324219 L 1.25 0 L 5.175781 0 L 5.175781 -11 L 11.074219 0 L 16.949219 0 L 16.949219 -18.324219 L 13.023438 -18.324219 L 13.023438 -7.324219 L 7.148438 -18.324219 Z M 1.25 -18.324219 "/></g></g></g><g fill="#00285b" fill-opacity="1"><g transform="translate(325.525676, 194.249987)"><g><path d="M 1.25 -18.324219 L 1.25 0 L 6.472656 0 L 6.472656 -18.324219 Z M 1.25 -18.324219 "/></g></g></g><g fill="#00285b" fill-opacity="1"><g transform="translate(333.249453, 194.249987)"><g><path d="M 10.324219 -14.398438 L 14.898438 -14.398438 L 14.25 -18.324219 L 1.148438 -18.324219 L 0.5 -14.398438 L 5.074219 -14.398438 L 5.074219 0 L 10.324219 0 Z M 10.324219 -14.398438 "/></g></g></g><g fill="#00285b" fill-opacity="1"><g transform="translate(348.64702, 194.249987)"><g><path d="M 16.449219 -18.324219 L 12.523438 -18.324219 C 12.5 -18.273438 12.5 -18.273438 12.523438 -18.296875 C 12.523438 -18.324219 12.523438 -18.324219 12.5 -18.273438 C 12.472656 -18.222656 12.421875 -18.074219 12.324219 -17.875 C 12.222656 -17.671875 12.074219 -17.324219 11.875 -16.824219 C 11.675781 -16.324219 11.375 -15.625 11 -14.773438 C 10.625 -13.898438 10.148438 -12.773438 9.574219 -11.425781 C 8.972656 -12.773438 8.5 -13.898438 8.148438 -14.773438 C 7.773438 -15.625 7.472656 -16.324219 7.273438 -16.824219 C 7.050781 -17.324219 6.898438 -17.671875 6.824219 -17.875 C 6.722656 -18.074219 6.675781 -18.222656 6.648438 -18.273438 C 6.625 -18.324219 6.625 -18.324219 6.648438 -18.296875 C 6.648438 -18.273438 6.648438 -18.273438 6.648438 -18.324219 L 0.75 -18.324219 L 5.972656 -6.050781 L 5.972656 0 L 11.222656 0 L 11.222656 -6.050781 Z M 16.449219 -18.324219 "/></g></g></g></svg>