<svg id="Layer_1" data-name="Layer 1" xmlns="http://www.w3.org/2000/svg" viewBox="0 0 1830.18 1830.18"><defs><style>.cls-1{fill:#fff;opacity:0.85;}</style></defs><path class="cls-1" d="M1688,117.92H312C187.09,117.92,84.91,220.11,84.91,345V1721c0,124.9,102.18,227.08,227.08,227.08H1688c124.89,0,227.08-102.18,227.08-227.08V345C1915.09,220.11,1812.9,117.92,1688,117.92ZM1299,966.66q0,86.39-28.45,163.79T1192.63,1270q-49.5,62.25-117.94,106.37a473.69,473.69,0,0,1-148.52,63.25v242.19a115.74,115.74,0,0,1-8.9,45.26,110,110,0,0,1-24.78,36.33,122.12,122.12,0,0,1-36.34,24.26,109.06,109.06,0,0,1-43.7,8.92q-49.5,0-82.11-32.66t-32.65-82.11v-243.3a476.69,476.69,0,0,1-147.49-64.2,497.66,497.66,0,0,1-116.91-106.36,488.77,488.77,0,0,1-77.39-139Q328,1052,328.05,966.66V574.91a107.71,107.71,0,0,1,8.91-43.7,123.31,123.31,0,0,1,24.25-36.34,107.82,107.82,0,0,1,36.34-24.69,113.27,113.27,0,0,1,88.45,0,114.21,114.21,0,0,1,36.85,24.69,118.43,118.43,0,0,1,24.77,36.34,109.22,109.22,0,0,1,8.91,43.7v393.9q0,53.73,20.06,100.53t54.76,81.16q34.73,34.2,82.11,53.65t101.13,19.54c35.73,0,69.33-6.86,100.53-20.57a253.34,253.34,0,0,0,81.07-55.79,267.19,267.19,0,0,0,54.25-82.7q20.07-47.31,20.07-102.16V771.88a104.06,104.06,0,0,1,9.42-43.71,126.4,126.4,0,0,1,25.27-36.34,112.81,112.81,0,0,1,37.37-24.68,115.37,115.37,0,0,1,44.83-9q24.16,0,44.22,9a110.93,110.93,0,0,1,35.22,24.68,113.66,113.66,0,0,1,32.14,80Zm365.21,337.74c0,16.1-3,61.32-8.91,75a120.43,120.43,0,0,1-23.73,35.81,100.3,100.3,0,0,1-35.23,23.67,113.62,113.62,0,0,1-43.71,8.47,121.07,121.07,0,0,1-44.74-8.47,110.43,110.43,0,0,1-37.45-23.67,120,120,0,0,1-25.28-35.81c-6.26-13.72-9.43-58.94-9.43-75V789.51a57.56,57.56,0,0,1,1-12.69q-2.06-51.55-21.09-96.85a251.58,251.58,0,0,0-51.59-79,242.43,242.43,0,0,0-76.36-53.13q-43.71-19.56-96.33-19.54-53.74,0-99,19.54T1015,602q-32.13,34.83-50.57,81.67T946,784.19V938.83a117.37,117.37,0,0,1-8.41,44.74,108.92,108.92,0,0,1-59,59.48q-20.05,8.49-44.3,8.49a119.8,119.8,0,0,1-81.59-32.14,114.1,114.1,0,0,1-25.8-35.83,105.13,105.13,0,0,1-9.52-44.74V784.19q0-101,36.35-189.06,36.38-87.81,100.1-153.75,63.63-65.7,150.58-103.7t186.92-37.89q101.18,0,187.43,37.89t149.55,103.7q63.26,66,99.51,153.75,36.36,88.07,36.33,189.06Z" transform="translate(-84.91 -117.92)"/></svg>