<svg width="461" height="462" viewBox="0 0 461 462" fill="none" xmlns="http://www.w3.org/2000/svg">
<path d="M461 353.073H0V353.304H461V353.073Z" fill="#444444"/>
<path d="M410.824 359.002H380.629V359.232H410.824V359.002Z" fill="#444444"/>
<path d="M304.509 364.008H266.781V364.238H304.509V364.008Z" fill="#444444"/>
<path d="M318.902 364.008H310.161V364.238H318.902V364.008Z" fill="#444444"/>
<path d="M121.399 361.362H85.9023V361.593H121.399V361.362Z" fill="#444444"/>
<path d="M192.237 361.362H160.585V361.593H192.237V361.362Z" fill="#444444"/>
<path d="M371.704 359.002H339.508V359.232H371.704V359.002Z" fill="#444444"/>
<path d="M78.3698 361.362H47.6211V361.593H78.3698V361.362Z" fill="#444444"/>
<path d="M69.8234 181.212L82.0583 169.226L79.5136 164.275C79.7349 163.777 79.947 163.279 80.1406 162.772L85.479 161.149L85.5988 143.982L80.2881 142.285C80.0945 141.778 79.8916 141.271 79.6704 140.773L82.2888 135.859L70.2199 123.587L65.2687 126.141C64.7708 125.91 64.273 125.708 63.7659 125.505L62.1431 120.176L44.9755 120.056L43.2698 125.366C42.7627 125.551 42.2648 125.754 41.7669 125.975L36.8803 123.356L24.627 135.407L27.1717 140.367C26.9504 140.856 26.7383 141.363 26.5447 141.861L21.2063 143.493L21.0957 160.661L26.3972 162.357C26.5908 162.864 26.7937 163.371 27.0149 163.869L24.3965 168.783L36.447 181.009L41.3981 178.446C41.896 178.676 42.3939 178.879 42.901 179.082L44.5237 184.411L61.6914 184.531L63.3971 179.22C63.9042 179.027 64.402 178.824 64.8999 178.612L69.8234 181.212ZM62.3091 161.389C60.5107 163.166 58.2257 164.369 55.7432 164.847C53.2607 165.324 50.6923 165.055 48.363 164.073C46.0336 163.09 44.0479 161.439 42.6571 159.328C41.2663 157.217 40.5329 154.741 40.5497 152.213C40.5664 149.685 41.3326 147.219 42.7513 145.127C44.17 143.034 46.1775 141.41 48.5197 140.458C50.8619 139.507 53.4336 139.272 55.9095 139.782C58.3854 140.293 60.6543 141.527 62.429 143.327C63.6073 144.521 64.539 145.935 65.1707 147.489C65.8025 149.042 66.1219 150.705 66.1108 152.383C66.0996 154.06 65.7582 155.719 65.1059 157.264C64.4536 158.809 63.5032 160.211 62.3091 161.389Z" fill="#444444"/>
<path d="M424.784 333.997L433.662 325.238L431.818 321.642C431.984 321.283 432.132 320.923 432.279 320.554L436.152 319.374L436.235 306.909L432.418 305.682C432.279 305.314 432.132 304.954 431.975 304.585L433.875 301.017L425.042 292.129L421.437 293.973C421.077 293.807 420.718 293.66 420.349 293.521L419.169 289.649L406.703 289.557L405.468 293.411C405.099 293.549 404.739 293.696 404.38 293.853L400.802 291.945L391.933 300.694L393.777 304.299C393.611 304.659 393.454 305.019 393.316 305.387L389.443 306.568L389.36 319.033L393.214 320.268C393.353 320.637 393.491 320.997 393.657 321.356L391.748 324.925L400.507 333.803L404.103 331.959C404.463 332.125 404.822 332.273 405.191 332.411L406.371 336.284L418.837 336.376L420.072 332.513C420.441 332.384 420.81 332.236 421.169 332.07L424.784 333.997ZM419.325 319.586C418.019 320.874 416.36 321.745 414.558 322.09C412.757 322.435 410.894 322.238 409.204 321.524C407.514 320.81 406.074 319.611 405.066 318.078C404.058 316.546 403.527 314.749 403.539 312.915C403.552 311.081 404.109 309.291 405.138 307.773C406.168 306.255 407.625 305.077 409.324 304.386C411.024 303.696 412.89 303.525 414.686 303.896C416.483 304.266 418.129 305.16 419.418 306.466C420.273 307.334 420.95 308.361 421.408 309.49C421.867 310.619 422.098 311.827 422.09 313.045C422.081 314.264 421.833 315.468 421.358 316.591C420.884 317.713 420.193 318.731 419.325 319.586Z" fill="#F0F0F0"/>
<path d="M315.868 320.323H44.8552C43.3049 320.323 41.8181 319.708 40.7219 318.611C39.6256 317.515 39.0098 316.028 39.0098 314.478V111.002C39.0122 109.452 39.6288 107.967 40.7246 106.871C41.8203 105.775 43.3057 105.159 44.8552 105.156H315.868C317.418 105.159 318.903 105.775 319.999 106.871C321.094 107.967 321.711 109.452 321.713 111.002V314.478C321.713 316.028 321.098 317.515 320.001 318.611C318.905 319.708 317.418 320.323 315.868 320.323ZM44.8552 105.608C43.4279 105.61 42.0598 106.179 41.0505 107.188C40.0413 108.197 39.4732 109.565 39.4708 110.993V314.478C39.4732 315.905 40.0413 317.273 41.0505 318.283C42.0598 319.292 43.4279 319.86 44.8552 319.862H315.868C317.295 319.86 318.663 319.292 319.673 318.283C320.682 317.273 321.25 315.905 321.252 314.478V111.002C321.25 109.574 320.682 108.206 319.673 107.197C318.663 106.188 317.295 105.62 315.868 105.617L44.8552 105.608Z" fill="#444444"/>
<path d="M51.5586 115.907C50.9222 115.907 50.3001 115.719 49.7709 115.365C49.2417 115.011 48.8293 114.509 48.5858 113.921C48.3422 113.333 48.2785 112.686 48.4027 112.062C48.5268 111.438 48.8333 110.864 49.2833 110.414C49.7333 109.964 50.3067 109.658 50.9308 109.534C51.555 109.409 52.202 109.473 52.79 109.717C53.378 109.96 53.8805 110.373 54.2341 110.902C54.5877 111.431 54.7764 112.053 54.7764 112.689C54.7764 113.543 54.4374 114.361 53.8339 114.965C53.2305 115.568 52.412 115.907 51.5586 115.907ZM51.5586 109.933C51.0115 109.933 50.4768 110.095 50.0219 110.399C49.567 110.703 49.2125 111.135 49.0032 111.64C48.7938 112.146 48.739 112.702 48.8458 113.238C48.9525 113.775 49.2159 114.268 49.6027 114.655C49.9896 115.041 50.4824 115.305 51.019 115.412C51.5555 115.518 52.1117 115.463 52.6171 115.254C53.1225 115.045 53.5545 114.69 53.8584 114.235C54.1624 113.781 54.3246 113.246 54.3246 112.699C54.3246 111.965 54.0332 111.262 53.5145 110.743C52.9957 110.224 52.2922 109.933 51.5586 109.933Z" fill="#444444"/>
<path d="M62.1426 115.907C61.5062 115.907 60.884 115.719 60.3549 115.365C59.8257 115.011 59.4133 114.509 59.1697 113.921C58.9262 113.333 58.8625 112.686 58.9866 112.062C59.1108 111.438 59.4173 110.864 59.8673 110.414C60.3173 109.964 60.8906 109.658 61.5148 109.534C62.139 109.409 62.786 109.473 63.374 109.717C63.962 109.96 64.4645 110.373 64.8181 110.902C65.1716 111.431 65.3604 112.053 65.3604 112.689C65.3604 113.543 65.0214 114.361 64.4179 114.965C63.8145 115.568 62.996 115.907 62.1426 115.907ZM62.1426 109.933C61.5955 109.933 61.0607 110.095 60.6059 110.399C60.151 110.703 59.7965 111.135 59.5871 111.64C59.3778 112.146 59.323 112.702 59.4297 113.238C59.5365 113.775 59.7999 114.268 60.1867 114.655C60.5736 115.041 61.0664 115.305 61.603 115.412C62.1395 115.518 62.6957 115.463 63.2011 115.254C63.7065 115.045 64.1385 114.69 64.4424 114.235C64.7464 113.781 64.9086 113.246 64.9086 112.699C64.9086 111.965 64.6172 111.262 64.0984 110.743C63.5797 110.224 62.8762 109.933 62.1426 109.933Z" fill="#444444"/>
<path d="M72.7275 115.907C72.0911 115.907 71.469 115.719 70.9398 115.365C70.4107 115.011 69.9983 114.509 69.7547 113.921C69.5112 113.333 69.4474 112.686 69.5716 112.062C69.6958 111.438 70.0022 110.864 70.4522 110.414C70.9022 109.964 71.4756 109.658 72.0998 109.534C72.724 109.409 73.371 109.473 73.9589 109.717C74.5469 109.96 75.0495 110.373 75.403 110.902C75.7566 111.431 75.9453 112.053 75.9453 112.689C75.9453 113.543 75.6063 114.361 75.0029 114.965C74.3994 115.568 73.581 115.907 72.7275 115.907ZM72.7275 109.933C72.1805 109.933 71.6457 110.095 71.1908 110.399C70.736 110.703 70.3814 111.135 70.1721 111.64C69.9627 112.146 69.908 112.702 70.0147 113.238C70.1214 113.775 70.3849 114.268 70.7717 114.655C71.1585 115.041 71.6514 115.305 72.1879 115.412C72.7245 115.518 73.2806 115.463 73.786 115.254C74.2915 115.045 74.7235 114.69 75.0274 114.235C75.3313 113.781 75.4935 113.246 75.4935 112.699C75.4935 111.965 75.2021 111.262 74.6834 110.743C74.1647 110.224 73.4611 109.933 72.7275 109.933Z" fill="#444444"/>
<path d="M423.502 282.079H152.489C150.756 282.077 149.095 281.388 147.869 280.162C146.644 278.937 145.955 277.275 145.952 275.542V72.0663C145.955 70.3333 146.644 68.672 147.869 67.4466C149.095 66.2212 150.756 65.5317 152.489 65.5293H423.502C425.235 65.5317 426.896 66.2212 428.121 67.4466C429.347 68.672 430.036 70.3333 430.039 72.0663V275.542C430.036 277.275 429.347 278.937 428.121 280.162C426.896 281.388 425.235 282.077 423.502 282.079ZM152.489 67.3733C151.245 67.3757 150.053 67.871 149.173 68.7505C148.294 69.6301 147.799 70.8224 147.796 72.0663V275.542C147.799 276.786 148.294 277.979 149.173 278.858C150.053 279.738 151.245 280.233 152.489 280.235H423.502C424.746 280.233 425.938 279.738 426.818 278.858C427.697 277.979 428.192 276.786 428.195 275.542V72.0663C428.195 70.8216 427.7 69.6279 426.82 68.7478C425.94 67.8677 424.746 67.3733 423.502 67.3733H152.489Z" fill="#444444"/>
<path d="M418.173 256.733H157.828C157.816 256.734 157.803 256.733 157.791 256.729C157.779 256.725 157.769 256.718 157.76 256.709C157.751 256.7 157.744 256.69 157.74 256.678C157.736 256.666 157.734 256.653 157.736 256.641V100.445C157.736 100.42 157.746 100.397 157.763 100.38C157.78 100.362 157.804 100.353 157.828 100.353H418.173C418.197 100.355 418.219 100.365 418.236 100.382C418.253 100.399 418.263 100.421 418.265 100.445V256.641C418.265 256.653 418.263 256.665 418.258 256.676C418.254 256.687 418.247 256.697 418.238 256.706C418.23 256.715 418.22 256.721 418.209 256.726C418.197 256.731 418.185 256.733 418.173 256.733ZM157.92 256.549H418.081V100.546H157.92V256.549Z" fill="#E6E6E6"/>
<path d="M159.193 77.1096C158.529 77.1078 157.881 76.9094 157.331 76.5395C156.78 76.1697 156.351 75.6449 156.099 75.0315C155.846 74.4181 155.781 73.7436 155.911 73.0932C156.042 72.4428 156.362 71.8456 156.832 71.3772C157.302 70.9088 157.9 70.59 158.55 70.4613C159.201 70.3325 159.876 70.3995 160.488 70.6538C161.101 70.9081 161.625 71.3382 161.993 71.89C162.361 72.4417 162.558 73.0902 162.558 73.7535C162.558 74.195 162.471 74.6322 162.302 75.04C162.132 75.4478 161.884 75.8181 161.572 76.1299C161.259 76.4417 160.888 76.6887 160.48 76.8568C160.071 77.0249 159.634 77.1108 159.193 77.1096ZM159.193 71.1443C158.677 71.1461 158.173 71.3007 157.745 71.5885C157.318 71.8763 156.985 72.2844 156.789 72.7614C156.592 73.2383 156.542 73.7627 156.644 74.2682C156.746 74.7737 156.995 75.2378 157.36 75.6018C157.725 75.9658 158.19 76.2134 158.696 76.3133C159.202 76.4132 159.726 76.361 160.202 76.1633C160.679 75.9655 161.086 75.6311 161.372 75.2022C161.658 74.7733 161.811 74.2692 161.811 73.7535C161.811 73.4101 161.743 73.0701 161.612 72.7529C161.48 72.4357 161.287 72.1477 161.044 71.9052C160.8 71.6628 160.512 71.4708 160.194 71.3402C159.876 71.2097 159.536 71.1431 159.193 71.1443Z" fill="white"/>
<path d="M169.777 77.1096C169.113 77.1078 168.465 76.9094 167.915 76.5395C167.364 76.1697 166.935 75.6449 166.683 75.0315C166.43 74.4181 166.365 73.7436 166.495 73.0932C166.626 72.4428 166.946 71.8456 167.416 71.3772C167.886 70.9088 168.484 70.59 169.134 70.4613C169.785 70.3325 170.46 70.3995 171.072 70.6538C171.685 70.9081 172.209 71.3382 172.577 71.89C172.945 72.4417 173.142 73.0902 173.142 73.7535C173.142 74.195 173.055 74.6322 172.886 75.04C172.716 75.4478 172.468 75.8181 172.156 76.1299C171.843 76.4417 171.472 76.6887 171.064 76.8568C170.655 77.0249 170.218 77.1108 169.777 77.1096ZM169.777 71.1443C169.262 71.1497 168.76 71.3074 168.335 71.5974C167.909 71.8874 167.579 72.2968 167.386 72.774C167.192 73.2513 167.145 73.775 167.249 74.2793C167.352 74.7836 167.603 75.246 167.969 75.6081C168.335 75.9703 168.8 76.216 169.305 76.3145C169.811 76.4129 170.334 76.3597 170.809 76.1614C171.284 75.9631 171.69 75.6287 171.976 75.2002C172.261 74.7718 172.413 74.2684 172.413 73.7535C172.413 73.4085 172.345 73.067 172.212 72.7486C172.079 72.4302 171.885 72.1413 171.639 71.8987C171.394 71.656 171.103 71.4644 170.784 71.3349C170.464 71.2054 170.122 71.1406 169.777 71.1443Z" fill="white"/>
<path d="M180.361 77.1096C179.698 77.1078 179.05 76.9094 178.499 76.5395C177.949 76.1697 177.52 75.6449 177.267 75.0315C177.015 74.4181 176.95 73.7436 177.08 73.0932C177.211 72.4428 177.531 71.8456 178.001 71.3772C178.471 70.9088 179.069 70.59 179.719 70.4613C180.37 70.3325 181.044 70.3995 181.657 70.6538C182.27 70.9081 182.793 71.3382 183.162 71.89C183.53 72.4417 183.727 73.0902 183.727 73.7535C183.727 74.195 183.64 74.6322 183.47 75.04C183.301 75.4478 183.053 75.8181 182.741 76.1299C182.428 76.4417 182.057 76.6887 181.649 76.8568C181.24 77.0249 180.803 77.1108 180.361 77.1096ZM180.361 71.1443C179.846 71.1461 179.342 71.3007 178.914 71.5885C178.487 71.8763 178.154 72.2844 177.957 72.7614C177.761 73.2383 177.711 73.7627 177.813 74.2682C177.914 74.7737 178.164 75.2378 178.529 75.6018C178.894 75.9658 179.359 76.2134 179.865 76.3133C180.371 76.4132 180.895 76.361 181.371 76.1633C181.848 75.9655 182.255 75.6311 182.541 75.2022C182.827 74.7733 182.98 74.2692 182.98 73.7535C182.98 73.4101 182.912 73.0701 182.78 72.7529C182.649 72.4357 182.456 72.1477 182.212 71.9052C181.969 71.6628 181.68 71.4708 181.363 71.3402C181.045 71.2097 180.705 71.1431 180.361 71.1443Z" fill="white"/>
<path d="M429.117 80.5947H146.874V81.3415H429.117V80.5947Z" fill="#444444"/>
<path d="M274.867 238.441L403.983 238.441V106.844L274.867 106.844V238.441Z" fill="#F0F0F0"/>
<path d="M164.208 149.652H249.456V106.844H164.208V149.652Z" fill="#F0F0F0"/>
<path d="M164.208 273.688H249.456V165.658H164.208V273.688Z" fill="#F0F0F0"/>
<path d="M433.792 134.19L452.398 115.833L448.516 108.291C448.857 107.545 449.18 106.789 449.438 106.014L457.552 103.543L457.736 77.3952L449.65 74.8043C449.355 74.0391 449.051 73.2738 448.728 72.5178L452.785 65.0127L434.437 46.3975L426.886 50.2884C426.13 49.938 425.374 49.6245 424.6 49.3664L422.129 41.2528L395.99 41.0684L393.362 49.099C392.588 49.3848 391.822 49.6891 391.066 50.021L383.571 46.0287L364.955 64.4042L368.883 71.9554C368.542 72.7022 368.219 73.4674 367.961 74.2327L359.764 76.759L359.58 102.898L367.666 105.489C367.952 106.263 368.256 107.028 368.588 107.784L364.596 115.271L382.953 133.886L390.504 130.004C391.251 130.346 392.016 130.668 392.781 130.926L395.261 139.049L421.4 139.224L423.991 131.139C424.765 130.853 425.531 130.548 426.287 130.217L433.792 134.19ZM422.359 103.967C419.619 106.669 416.14 108.497 412.361 109.221C408.582 109.945 404.673 109.532 401.129 108.035C397.585 106.537 394.564 104.022 392.449 100.808C390.334 97.5939 389.22 93.8248 389.247 89.9772C389.274 86.1297 390.441 82.3766 392.601 79.1925C394.761 76.0084 397.817 73.5364 401.382 72.089C404.947 70.6415 408.861 70.2838 412.63 71.0609C416.398 71.838 419.851 73.715 422.553 76.4547C424.348 78.2733 425.767 80.4278 426.728 82.7951C427.69 85.1623 428.176 87.696 428.158 90.2511C428.14 92.8062 427.619 95.3328 426.624 97.6863C425.629 100.04 424.179 102.174 422.359 103.967Z" fill="#444444"/>
<path d="M230.5 394.71C329.23 394.71 409.267 390.037 409.267 384.273C409.267 378.509 329.23 373.836 230.5 373.836C131.77 373.836 51.7334 378.509 51.7334 384.273C51.7334 390.037 131.77 394.71 230.5 394.71Z" fill="#F5F5F5" fill-opacity="0.5"/>
<path d="M395.898 89.7402H65.1118C62.7633 89.7475 60.5129 90.6831 58.8513 92.3429C57.1898 94.0027 56.2519 96.2521 56.2422 98.6007V319.383C56.2495 321.732 57.1866 323.983 58.8487 325.643C60.5107 327.304 62.7625 328.238 65.1118 328.243H395.898C398.245 328.236 400.495 327.3 402.155 325.64C403.815 323.98 404.751 321.73 404.758 319.383V98.6007C404.748 96.2537 403.812 94.0057 402.152 92.3461C400.493 90.6866 398.245 89.7499 395.898 89.7402Z" fill="#0AADB6"/>
<path d="M122.11 104.529H75.2905C74.4346 104.529 73.6138 104.189 73.0086 103.584C72.4035 102.979 72.0635 102.158 72.0635 101.302C72.0635 100.446 72.4035 99.6255 73.0086 99.0204C73.6138 98.4152 74.4346 98.0752 75.2905 98.0752H122.11C122.965 98.0752 123.786 98.4152 124.391 99.0204C124.997 99.6255 125.337 100.446 125.337 101.302C125.337 102.158 124.997 102.979 124.391 103.584C123.786 104.189 122.965 104.529 122.11 104.529ZM75.2905 98.9972C74.6792 98.9972 74.0929 99.24 73.6606 99.6723C73.2283 100.105 72.9855 100.691 72.9855 101.302C72.9855 101.914 73.2283 102.5 73.6606 102.932C74.0929 103.364 74.6792 103.607 75.2905 103.607H122.11C122.721 103.607 123.307 103.364 123.74 102.932C124.172 102.5 124.415 101.914 124.415 101.302C124.415 100.691 124.172 100.105 123.74 99.6723C123.307 99.24 122.721 98.9972 122.11 98.9972H75.2905Z" fill="#FAFAFA"/>
<path d="M137.304 104.529H134.178C133.322 104.529 132.502 104.189 131.896 103.584C131.291 102.979 130.951 102.158 130.951 101.302C130.951 100.446 131.291 99.6255 131.896 99.0204C132.502 98.4152 133.322 98.0752 134.178 98.0752H137.304C138.16 98.0752 138.98 98.4152 139.586 99.0204C140.191 99.6255 140.531 100.446 140.531 101.302C140.531 102.158 140.191 102.979 139.586 103.584C138.98 104.189 138.16 104.529 137.304 104.529ZM134.178 98.9972C133.567 98.9972 132.981 99.24 132.548 99.6723C132.116 100.105 131.873 100.691 131.873 101.302C131.873 101.914 132.116 102.5 132.548 102.932C132.981 103.364 133.567 103.607 134.178 103.607H137.304C137.915 103.607 138.501 103.364 138.934 102.932C139.366 102.5 139.609 101.914 139.609 101.302C139.609 100.691 139.366 100.105 138.934 99.6723C138.501 99.24 137.915 98.9972 137.304 98.9972H134.178Z" fill="#FAFAFA"/>
<path d="M150.369 104.529H147.244C146.388 104.529 145.567 104.189 144.962 103.584C144.357 102.979 144.017 102.158 144.017 101.302C144.017 100.446 144.357 99.6255 144.962 99.0204C145.567 98.4152 146.388 98.0752 147.244 98.0752H150.369C151.225 98.0752 152.046 98.4152 152.651 99.0204C153.256 99.6255 153.596 100.446 153.596 101.302C153.596 102.158 153.256 102.979 152.651 103.584C152.046 104.189 151.225 104.529 150.369 104.529ZM147.244 98.9972C146.632 98.9972 146.046 99.24 145.614 99.6723C145.181 100.105 144.939 100.691 144.939 101.302C144.939 101.914 145.181 102.5 145.614 102.932C146.046 103.364 146.632 103.607 147.244 103.607H150.369C150.981 103.607 151.567 103.364 151.999 102.932C152.431 102.5 152.674 101.914 152.674 101.302C152.674 100.691 152.431 100.105 151.999 99.6723C151.567 99.24 150.981 98.9972 150.369 98.9972H147.244Z" fill="#FAFAFA"/>
<path d="M59.1745 325.317C57.5988 323.743 56.7103 321.609 56.7032 319.382V113.122H404.297V319.381C404.29 321.607 403.403 323.74 401.829 325.314C400.255 326.888 398.122 327.775 395.896 327.782H65.1128C62.8853 327.778 60.7503 326.891 59.1745 325.317Z" fill="#D1D2DB" stroke="black" stroke-width="0.922"/>
<path d="M73.7598 124.361V161.241H310.714V124.361H73.7598Z" fill="#A186E2"/>
<path opacity="0.9" d="M73.7598 124.361V161.241H310.714V124.361H73.7598Z" fill="white"/>
<path d="M309.792 171.937V269.853H74.6818V171.937H309.792ZM310.714 171.015H73.7598V270.775H310.714V171.015Z" fill="#A186E2"/>
<path opacity="0.9" d="M309.792 171.937V269.853H74.6818V171.937H309.792ZM310.714 171.015H73.7598V270.775H310.714V171.015Z" fill="white"/>
<path d="M337.286 375.699H330.334L328.48 359.592H335.442L337.286 375.699Z" fill="#F1B7B6"/>
<path d="M379.477 375.699H372.525L367.104 359.592H374.055L379.477 375.699Z" fill="#F1B7B6"/>
<path d="M371.566 374.888H380.049C380.187 374.889 380.321 374.937 380.428 375.024C380.535 375.111 380.61 375.232 380.639 375.367L382.013 381.545C382.046 381.695 382.045 381.852 382.009 382.002C381.974 382.152 381.904 382.293 381.807 382.412C381.709 382.532 381.586 382.628 381.446 382.694C381.306 382.759 381.153 382.792 380.998 382.789C378.232 382.743 376.278 382.577 372.839 382.577C370.727 382.577 366.385 382.798 363.453 382.798C360.521 382.798 360.152 379.913 361.341 379.654C366.707 378.474 368.717 376.888 370.442 375.321C370.75 375.042 371.151 374.888 371.566 374.888Z" fill="#263238"/>
<path d="M330.38 374.888H337.978C338.117 374.888 338.252 374.936 338.361 375.023C338.47 375.11 338.546 375.231 338.577 375.367L339.951 381.545C339.984 381.695 339.983 381.85 339.948 382C339.913 382.149 339.844 382.289 339.748 382.409C339.651 382.528 339.529 382.625 339.39 382.69C339.251 382.756 339.1 382.79 338.946 382.789C336.18 382.743 332.243 382.577 328.804 382.577C324.775 382.577 321.299 382.798 316.578 382.798C313.72 382.798 312.89 379.913 314.126 379.654C319.565 378.456 324.009 378.336 328.712 375.432C329.207 375.099 329.784 374.91 330.38 374.888Z" fill="#263238"/>
<path d="M339.37 204.766C338.73 209.781 338.031 214.822 337.289 219.836L335.064 235.087C334.719 236.941 333.98 238.698 332.898 240.239C331.919 241.624 330.734 242.849 329.385 243.871C327.008 245.617 324.364 246.962 321.558 247.855C318.982 248.706 316.337 249.332 313.654 249.727C312.333 249.933 311.02 250.071 309.698 250.182C308.377 250.294 307.098 250.363 305.691 250.363L305.256 245.52C307.549 244.987 309.979 244.369 312.256 243.605C314.511 242.898 316.716 242.038 318.855 241.029C320.803 240.141 322.61 238.969 324.219 237.551C324.848 236.976 325.385 236.307 325.813 235.568C326.135 234.988 326.336 234.348 326.401 233.687L326.649 230.072C326.734 228.784 326.853 227.496 326.964 226.225C327.186 223.666 327.439 221.113 327.723 218.565C328.277 213.473 328.934 208.416 329.718 203.341L339.37 204.766Z" fill="#F1B7B6"/>
<path d="M343.574 199.653C345.916 205.876 340.301 226.741 340.301 226.741L324.849 219.015C324.849 219.015 325.577 208.614 329.108 200.575C332.64 192.535 341.002 192.793 343.574 199.653Z" fill="#A186E2"/>
<path d="M343.574 199.653C345.916 205.876 340.301 226.741 340.301 226.741L324.849 219.015C324.849 219.015 325.577 208.614 329.108 200.575C332.64 192.535 341.002 192.793 343.574 199.653Z" fill="#68234A"/>
<path d="M306.316 245.753L298.728 246.26L302.277 254.401C303.702 254.361 305.077 253.866 306.2 252.989C307.323 252.111 308.136 250.897 308.519 249.524L306.316 245.753Z" fill="#F1B7B6"/>
<path d="M300.572 251.171L304.311 255.895L309.792 255.268L306.651 248.519L300.572 251.171Z" fill="#F1B7B6"/>
<path d="M328.49 359.592L329.56 368.941L336.475 368.526L335.442 359.592H328.49Z" fill="#EA7063"/>
<path d="M374.065 359.592H367.104L370.736 370.379L377.209 368.932L374.065 359.592Z" fill="#EA7063"/>
<path d="M335.313 194.858C335.313 194.858 327.107 215.861 334.898 254.982H372.101C372.359 249.265 368.773 221.412 374.277 194.498C370.167 193.705 366.009 193.181 361.83 192.931C356.561 192.622 351.278 192.622 346.008 192.931C342.398 193.293 338.822 193.937 335.313 194.858Z" fill="#A186E2"/>
<path d="M335.313 194.858C335.313 194.858 327.107 215.861 334.898 254.982H372.101C372.359 249.265 368.773 221.412 374.277 194.498C370.167 193.705 366.009 193.181 361.83 192.931C356.561 192.622 351.278 192.622 346.008 192.931C342.398 193.293 338.822 193.937 335.313 194.858Z" fill="#68234A"/>
<path d="M360.262 175.118C359.267 180.208 358.271 189.529 361.83 192.931C361.83 192.931 360.438 198.085 350.978 198.085C340.587 198.085 346.008 192.931 346.008 192.931C351.688 191.576 351.54 187.399 350.554 183.407L360.262 175.118Z" fill="#F1B7B6"/>
<path d="M347.101 161.753C343.819 164.316 343.842 174.543 348.817 174.757C353.792 174.971 353.341 156.913 347.101 161.753Z" fill="#263238"/>
<path d="M361.041 172.805C359.297 178.698 358.565 182.238 354.927 184.583C349.465 188.115 342.984 183.604 342.984 177.291C342.984 171.603 345.843 162.928 352.06 161.948C353.428 161.731 354.827 161.878 356.124 162.376C357.421 162.873 358.574 163.705 359.473 164.792C360.373 165.88 360.989 167.186 361.263 168.588C361.537 169.99 361.461 171.442 361.041 172.805Z" fill="#F1B7B6"/>
<path d="M359.633 179.355C356.327 179.931 354.52 161.043 362.406 165.22C373.615 171.176 364.99 178.431 359.633 179.355Z" fill="#263238"/>
<path d="M359.377 167.46C355.201 167.083 349.158 167.267 347.846 161.898C346.02 154.409 354.622 153.303 356.746 159.033C361.863 157.282 375.961 166.43 366.571 171.07L359.377 167.46Z" fill="#263238"/>
<path d="M362.317 180.434C361.15 181.544 359.585 182.155 357.964 182.134C355.817 182.092 355.377 180.051 356.464 178.368C357.472 176.846 359.8 175.044 361.705 175.903C363.61 176.761 363.723 179.014 362.317 180.434Z" fill="#F1B7B6"/>
<path d="M334.898 254.973C334.898 254.973 307.773 292.563 308.538 313.769C309.322 335.832 326.831 366.323 326.831 366.323L338.144 363.732C338.144 363.732 326.886 337.169 327.412 315.502C327.983 291.88 359.359 273.237 359.359 255.019L334.898 254.973Z" fill="#263238"/>
<path d="M348.101 254.973C348.101 254.973 334.271 293.697 338.613 313.621C343.353 335.426 367.195 367.65 367.195 367.65L378.582 364.515C378.582 364.515 363.166 336.791 360.465 315.198C357.524 291.77 372.137 272.398 372.137 254.973H348.101Z" fill="#263238"/>
<path d="M365.462 369.235L381.837 366.193L381.016 361.795L362.659 364.902L365.462 369.235Z" fill="#A186E2"/>
<path opacity="0.4" d="M365.462 369.235L381.837 366.193L381.016 361.795L362.659 364.902L365.462 369.235Z" fill="white"/>
<path d="M324.47 367.272L341.038 365.64L340.596 361.122L322.045 362.717L324.47 367.272Z" fill="#A186E2"/>
<path opacity="0.4" d="M324.47 367.272L341.038 365.64L340.596 361.122L322.045 362.717L324.47 367.272Z" fill="white"/>
<path d="M252.151 297.655L227.193 300.627L227.302 301.542L252.26 298.571L252.151 297.655Z" fill="#A186E2"/>
<path d="M271.335 295.347L261.055 296.582L261.165 297.497L271.445 296.263L271.335 295.347Z" fill="#A186E2"/>
<path d="M413.736 236.374L192.383 262.769L197.048 301.888L418.401 275.494L413.736 236.374Z" fill="#A186E2"/>
<path d="M381.054 250.994L279.368 263.119L281.511 281.091L383.197 268.965L381.054 250.994Z" fill="#A186E2"/>
<path opacity="0.2" d="M381.054 250.994L279.368 263.119L281.511 281.091L383.197 268.965L381.054 250.994Z" fill="white"/>
<path d="M225.797 288.403C230.742 284.445 231.542 277.226 227.583 272.281C223.624 267.336 216.406 266.537 211.461 270.496C206.516 274.455 205.716 281.673 209.675 286.618C213.634 291.563 220.852 292.362 225.797 288.403Z" fill="#A186E2"/>
<path opacity="0.3" d="M225.797 288.403C230.742 284.445 231.542 277.226 227.583 272.281C223.624 267.336 216.406 266.537 211.461 270.496C206.516 274.455 205.716 281.673 209.675 286.618C213.634 291.563 220.852 292.362 225.797 288.403Z" fill="white"/>
<path d="M260.159 282.628C264.02 277.606 263.078 270.405 258.056 266.545C253.034 262.684 245.833 263.626 241.973 268.648C238.112 273.67 239.054 280.871 244.076 284.731C249.098 288.592 256.299 287.65 260.159 282.628Z" fill="#A186E2"/>
<path opacity="0.3" d="M260.159 282.628C264.02 277.606 263.078 270.405 258.056 266.545C253.034 262.684 245.833 263.626 241.973 268.648C238.112 273.67 239.054 280.871 244.076 284.731C249.098 288.592 256.299 287.65 260.159 282.628Z" fill="white"/>
<path d="M377.358 205.185C377.903 206.374 378.349 207.427 378.778 208.583C379.207 209.738 379.603 210.817 380.033 211.981C380.858 214.232 381.543 216.518 382.162 218.854C382.804 221.201 383.33 223.58 383.739 225.982L384.036 227.808L384.251 229.669C384.333 230.289 384.366 230.926 384.408 231.555L384.474 232.507V232.744V233.135C384.474 233.441 384.474 233.704 384.474 233.985C384.311 235.655 383.841 237.279 383.087 238.768C382.505 239.966 381.843 241.121 381.106 242.226C379.741 244.244 378.249 246.168 376.64 247.986C373.533 251.499 370.166 254.76 366.569 257.739L363.268 254.34C365.959 250.798 368.65 247.136 371.085 243.5C372.28 241.733 373.382 239.901 374.386 238.012C374.847 237.165 375.247 236.285 375.583 235.378C375.82 234.797 375.959 234.18 375.996 233.551C375.996 233.551 375.996 233.509 375.996 233.551C375.996 233.594 375.996 233.602 375.996 233.551V233.356L375.881 232.591C375.806 232.073 375.74 231.572 375.625 231.045L375.327 229.499L374.973 227.936C374.469 225.854 373.899 223.765 373.247 221.683C372.595 219.602 371.885 217.52 371.134 215.447C370.763 214.411 370.383 213.383 369.987 212.355L368.773 209.195L377.358 205.185Z" fill="#F1B7B6"/>
<path d="M375.733 194.96C381.938 197.348 386.391 220.047 386.391 220.047L371.639 225.865C371.639 225.865 366.688 214.46 365.019 206.024C363.267 197.145 368.689 192.277 375.733 194.96Z" fill="#A186E2"/>
<path d="M375.733 194.96C381.938 197.348 386.391 220.047 386.391 220.047L371.639 225.865C371.639 225.865 366.688 214.46 365.019 206.024C363.267 197.145 368.689 192.277 375.733 194.96Z" fill="#68234A"/>
<path d="M369.298 376.104C368.823 376.14 368.35 376.016 367.952 375.754C367.828 375.646 367.733 375.511 367.674 375.358C367.614 375.206 367.593 375.041 367.611 374.878C367.61 374.782 367.636 374.688 367.687 374.606C367.737 374.525 367.81 374.459 367.896 374.417C368.671 374.021 370.911 375.395 371.16 375.561C371.189 375.576 371.212 375.601 371.226 375.631C371.239 375.661 371.242 375.695 371.234 375.726C371.229 375.758 371.215 375.786 371.194 375.809C371.173 375.832 371.145 375.848 371.114 375.856C370.52 376.008 369.911 376.091 369.298 376.104ZM368.265 374.666C368.189 374.66 368.112 374.676 368.044 374.712C367.998 374.712 367.952 374.777 367.943 374.906C367.927 375.015 367.939 375.126 367.978 375.229C368.016 375.332 368.08 375.424 368.164 375.496C368.94 375.855 369.825 375.901 370.635 375.625C369.913 375.157 369.109 374.831 368.265 374.666Z" fill="#A186E2"/>
<path d="M371.077 375.866C371.05 375.873 371.021 375.873 370.994 375.866C370.275 375.478 368.883 373.957 369.03 373.183C369.054 373.06 369.119 372.95 369.215 372.871C369.311 372.792 369.432 372.749 369.556 372.749C369.681 372.735 369.808 372.746 369.928 372.783C370.049 372.819 370.161 372.88 370.257 372.961C371.068 373.616 371.234 375.626 371.243 375.727C371.244 375.757 371.238 375.787 371.225 375.814C371.212 375.842 371.193 375.865 371.169 375.884C371.138 375.886 371.106 375.88 371.077 375.866ZM369.722 373.044H369.639C369.427 373.044 369.408 373.173 369.399 373.21C369.316 373.671 370.201 374.824 370.92 375.368C370.87 374.574 370.585 373.813 370.1 373.183C369.993 373.096 369.86 373.047 369.722 373.044Z" fill="#A186E2"/>
<path d="M327.494 376.105C326.897 376.159 326.299 376.01 325.797 375.681C325.685 375.582 325.599 375.457 325.546 375.317C325.493 375.178 325.475 375.027 325.493 374.879C325.497 374.788 325.523 374.7 325.57 374.623C325.617 374.546 325.682 374.481 325.76 374.436C326.609 373.966 329.402 375.358 329.725 375.552C329.754 375.568 329.777 375.593 329.792 375.622C329.807 375.652 329.812 375.685 329.808 375.718C329.805 375.752 329.79 375.784 329.767 375.809C329.743 375.834 329.713 375.85 329.679 375.856C328.96 376.008 328.228 376.092 327.494 376.105ZM326.231 374.667C326.125 374.66 326.02 374.682 325.926 374.731C325.894 374.748 325.867 374.773 325.847 374.804C325.828 374.835 325.817 374.87 325.816 374.906C325.806 375.004 325.82 375.102 325.855 375.193C325.89 375.285 325.946 375.366 326.019 375.432C326.443 375.81 327.595 375.884 329.126 375.626C328.223 375.143 327.243 374.819 326.231 374.667Z" fill="#A186E2"/>
<path d="M329.643 375.865H329.578C328.739 375.487 327.08 374.021 327.2 373.2C327.2 373.016 327.365 372.785 327.817 372.739C327.982 372.718 328.149 372.732 328.308 372.779C328.467 372.827 328.614 372.908 328.739 373.016C329.661 373.744 329.809 375.616 329.818 375.699C329.823 375.727 329.819 375.756 329.808 375.782C329.796 375.808 329.777 375.831 329.753 375.846C329.719 375.863 329.681 375.87 329.643 375.865ZM327.946 373.043H327.854C327.55 373.043 327.531 373.191 327.531 373.228C327.448 373.707 328.583 374.887 329.44 375.404C329.36 374.61 329.038 373.86 328.518 373.256C328.36 373.116 328.157 373.041 327.946 373.043Z" fill="#A186E2"/>
<path d="M364.583 253.129L357.736 254.889L363.408 261.427C363.408 261.427 368.895 258.725 367.711 255.795L364.583 253.129Z" fill="#F1B7B6"/>
<path d="M354.048 260.196L358.349 265.115L363.268 261.252L358.349 254.973L354.048 260.196Z" fill="#F1B7B6"/>
<path opacity="0.7" d="M250.192 196.372L194.538 196.372L194.538 216.373L250.682 216.863L250.192 196.372Z" fill="white"/>
<path opacity="0.7" d="M250.192 221.266L194.538 221.266L194.538 241.266L250.682 241.756L250.192 221.266Z" fill="white"/>
<path opacity="0.7" d="M186.135 196.372L130.48 196.372L130.48 216.373L186.625 216.863L186.135 196.372Z" fill="white"/>
<path opacity="0.7" d="M186.135 221.266L130.48 221.266L130.48 241.266L186.625 241.756L186.135 221.266Z" fill="white"/>
</svg>
