<svg width="102" height="120" viewBox="0 0 102 120" fill="none" xmlns="http://www.w3.org/2000/svg">
<path d="M2 104.768L17.2789 113.588M91.6878 117.999V100.356V117.999ZM99.3273 104.768L84.0484 113.588L99.3273 104.768ZM84.0484 104.768L99.3273 113.588L84.0484 104.768ZM64.0676 117.999V100.356V117.999ZM71.707 104.768L56.4281 113.588L71.707 104.768ZM56.4281 104.768L71.707 113.588L56.4281 104.768ZM37.2597 117.999V100.356V117.999ZM44.8991 104.768L29.6202 113.588L44.8991 104.768ZM29.6202 104.768L44.8991 113.588L29.6202 104.768ZM9.63944 117.999V100.356V117.999ZM17.2789 104.768L2 113.588L17.2789 104.768Z" stroke="#D3D3D3" stroke-width="3.82" stroke-linecap="round" stroke-linejoin="round"/>
<g opacity="0.432076">
<path opacity="0.432076" d="M56.4219 104.768L71.7007 113.588M64.0613 117.999V100.356V117.999ZM71.7007 104.768L56.4219 113.588L71.7007 104.768Z" stroke="#B9B9C3" stroke-width="3.82" stroke-linecap="round" stroke-linejoin="round"/>
</g>
<path d="M75.2975 47.3745C75.2975 60.8012 64.4151 71.6836 50.9884 71.6836C37.5617 71.6836 26.6777 60.8012 26.6777 47.3745V23.4521H75.2975V47.3745Z" fill="#3FC7CE"/>
<path d="M37.7444 24.0873C37.7444 24.0873 37.6973 23.5836 37.6973 16.261C37.6973 8.93835 43.634 3 50.9566 3C58.2792 3 64.2176 8.93835 64.2176 16.261V23.8192" stroke="#6E4998" stroke-width="5.73" stroke-linejoin="round"/>
<path d="M56.558 41.8016C56.558 44.8789 54.0641 47.3744 50.9869 47.3744C47.9096 47.3744 45.4141 44.8789 45.4141 41.8016C45.4141 38.7244 47.9096 36.2305 50.9869 36.2305C54.0641 36.2305 56.558 38.7244 56.558 41.8016Z" fill="#6E4998"/>
<path d="M50.9902 45.8545V52.2478" stroke="#6E4998" stroke-width="3.82" stroke-linecap="round" stroke-linejoin="round"/>
<path d="M30.5879 29.6038C30.5879 28.3657 31.592 27.3633 32.83 27.3633C34.068 27.3633 35.0705 28.3657 35.0705 29.6038C35.0705 30.8418 34.068 31.8459 32.83 31.8459C31.592 31.8459 30.5879 30.8418 30.5879 29.6038ZM71.3863 29.6038C71.3863 28.3657 70.3838 27.3633 69.1458 27.3633C67.9077 27.3633 66.9036 28.3657 66.9036 29.6038C66.9036 30.8418 67.9077 31.8459 69.1458 31.8459C70.3838 31.8459 71.3863 30.8418 71.3863 29.6038Z" fill="#A186E2"/>
</svg>
