<svg width="90" height="106" viewBox="0 0 90 106" fill="none" xmlns="http://www.w3.org/2000/svg">
<path d="M87.1545 12.6049L45.5766 0.131212C44.9943 -0.0437375 44.374 -0.0437375 43.7917 0.131212L2.21232 12.6049C0.899724 12.9988 0 14.2079 0 15.579V61.3156C0 67.2648 2.40826 73.3539 7.15782 79.4156C10.7852 84.0447 15.8037 88.6933 22.0738 93.2319C32.6066 100.857 42.9789 105.534 43.4153 105.729C43.8187 105.91 44.2515 106 44.6839 106C45.1168 106 45.5496 105.91 45.953 105.729C46.3889 105.534 56.7607 100.857 67.2945 93.2319C73.5641 88.6933 78.5826 84.0447 82.21 79.4156C86.9595 73.3544 89.3678 67.2648 89.3678 61.3156V15.579C89.3678 14.2079 88.4686 12.9988 87.1545 12.6049Z" fill="#3FC7CE"/>
<g opacity="0.139068">
<path d="M73.3175 29.1614C73.4368 29.0345 73.5129 28.9534 73.5377 28.9268" stroke="white" stroke-width="6" stroke-linecap="round"/>
</g>
<g opacity="0.139068">
<path d="M80.7284 57.1001C80.8896 57.166 80.9927 57.208 81.0264 57.2216" stroke="white" stroke-width="6" stroke-linecap="round"/>
</g>
<g opacity="0.139068">
<path d="M82.9671 41.2466C83.1354 41.2023 83.243 41.1738 83.2781 41.1643" stroke="white" stroke-width="6" stroke-linecap="round"/>
</g>
<path d="M57.0833 43.6045H30.3831C26.7749 43.6045 23.8223 46.5571 23.8223 50.1649V67.569C23.8223 71.1772 26.7749 74.1298 30.3831 74.1298H57.0833C60.6915 74.1298 63.6442 71.1772 63.6442 67.569V50.1649C63.6442 46.5571 60.6915 43.6045 57.0833 43.6045ZM43.7332 64.2984C41.1192 64.2984 38.9991 62.1783 38.9991 59.5638C38.9991 56.9489 41.1192 54.8297 43.7332 54.8297C46.3486 54.8297 48.4674 56.9489 48.4674 59.5638C48.4674 62.1783 46.3486 64.2984 43.7332 64.2984Z" fill="white"/>
<path d="M32.9079 45.5134C31.8643 45.2725 31.0716 44.353 31.0374 43.232L30.8502 37.1485C30.6354 30.1302 36.1707 24.2456 43.1891 24.0304C50.2074 23.8155 56.0926 29.3501 56.3074 36.3684L56.4811 42.0577C56.5223 43.3922 55.4736 44.507 54.1392 44.5478C52.8061 44.5888 51.6907 43.5404 51.65 42.206L51.4754 36.5165C51.3418 32.1624 47.6914 28.7283 43.3374 28.8615C38.9833 28.9951 35.549 32.6463 35.6822 37.0003L35.8689 43.0842C35.9102 44.4183 34.8615 45.5331 33.5271 45.5739C33.3142 45.5806 33.1064 45.5592 32.9079 45.5134Z" fill="white"/>
</svg>
